<?xml version="1.0" encoding="iso-8859-1"?>
<!-- Generator: Adobe Illustrator 18.1.1, SVG Export Plug-In . SVG Version: 6.00 Build 0)  -->
<svg version="1.1" xmlns="http://www.w3.org/2000/svg" xmlns:xlink="http://www.w3.org/1999/xlink" x="0px" y="0px"
	 viewBox="0 0 755.14 660.575" style="enable-background:new 0 0 755.14 660.575;" xml:space="preserve">
<g id="Layer_6">
	<g>
		<path style="fill:none;stroke:#1E1E1E;stroke-width:4;stroke-miterlimit:10;" d="M264.737,164.452
			C289.786,72.557,347.272,2,451.657,2s191.091,67.201,191.091,162.452s-84.621,172.467-189.006,172.467
			c-71.612,0-144.842-28.121-176.909-81.695C262.158,230.706,255.665,197.735,264.737,164.452z"/>
		<path style="fill:none;stroke:#1E1E1E;stroke-width:4;stroke-miterlimit:10;" d="M630.777,224.973c0,0,17.108-7.165,55.851-19.473
			c22.927-7.284,63.033-34.838,66.417-58.649c0.316-2.223-0.184-4.165-1.038-6.241c-1.136-2.759-4.389-3.733-4.389-3.733
			c-6.405-2.826-19.86-12.435-20.99-12.878c-31.462-12.332-112.03-42.426-112.03-42.426"/>
		<path style="fill:none;stroke:#1E1E1E;stroke-width:4;stroke-miterlimit:10;" d="M642.749,157.667c0,0,57.712,7.745,67.546-1.255
			c0.653-0.598,4.333,10.588-14.667,31.065c-20.887,22.51-43.975,11.322-58.242,17.915"/>
		<path style="fill:none;stroke:#1E1E1E;stroke-width:4;stroke-miterlimit:10;" d="M280.537,261.019
			c-5.507,1.243,0.04,14.411-51.409,4.879c-45.633-8.454-113.899-71.742-88.199-80.924c84.758-30.284,145.073-77.287,145.073-77.287
			"/>
		<path style="fill:none;stroke:#1E1E1E;stroke-width:4;stroke-miterlimit:10;" d="M318.394,56.027"/>
		<path style="fill:none;stroke:#1E1E1E;stroke-width:4;stroke-miterlimit:10;" d="M270.291,154.5
			c0.098-2.498-36.861,21.267-58.664,34.919c-1.041,0.652-43.128,16.091-43.5,17.262c-3.37,10.61-1.139,14.048,28.5,31.349
			c32.5,18.97,58.519,12.469,78.449,14.139"/>
		
			<line style="fill:none;stroke:#1E1E1E;stroke-width:4;stroke-miterlimit:10;" x1="307.447" y1="178.641" x2="325.78" y2="168.975"/>
		<path style="fill:none;stroke:#1E1E1E;stroke-width:4;stroke-miterlimit:10;" d="M626.628,143.975"/>
		<path style="fill:none;stroke:#1E1E1E;stroke-width:4;stroke-miterlimit:10;" d="M613.893,134.579"/>
		<path style="fill:none;stroke:#1E1E1E;stroke-width:4;stroke-miterlimit:10;" d="M445.253,101.829l60.882-12.159
			c0.725-0.145,1.205,0.73,0.695,1.264l-23.105,24.21l-38.719-7.226C444.256,107.688,444.483,101.983,445.253,101.829z"/>
		<path style="fill:none;stroke:#1E1E1E;stroke-width:4;stroke-miterlimit:10;" d="M552.156,194.534"/>
		<path style="fill:none;stroke:#1E1E1E;stroke-width:4;stroke-miterlimit:10;" d="M289.914,155.717
			c-22.498-4.05-55.13-7.941-92.939-5.416c-30.099,2.01-54.294,7.474-71.824,12.697"/>
		<path style="fill:none;stroke:#1E1E1E;stroke-width:4;stroke-miterlimit:10;" d="M637.386,150.045
			c12.851,3.868,28.034,9.339,44.171,17.146c15.026,7.269,27.347,14.856,37.129,21.684"/>
		<path style="fill:none;stroke:#1E1E1E;stroke-width:4;stroke-miterlimit:10;" d="M631.582,125.793
			c13.009-3.514,30.041-6.058,49.849-3.637c20.932,2.559,38.37,9.857,51.315,16.974"/>
		<line style="fill:none;stroke:#1E1E1E;stroke-width:4;stroke-miterlimit:10;" x1="602.674" y1="102.4" x2="707.361" y2="80.6"/>
		<path style="fill:none;stroke:#1E1E1E;stroke-width:4;stroke-miterlimit:10;" d="M345.128,313.722
			c-16.65,17.548-40.154,46.874-56.45,88.755c-25.591,65.773-18.536,124.301-13.608,150.783"/>
		<path style="fill:none;stroke:#1E1E1E;stroke-width:4;stroke-miterlimit:10;" d="M296.868,577.466
			c-0.639-2.088-5.862-18.221-21.547-23.828c-16.871-6.031-31.79,5.14-35.533,7.943c-15.38,11.515-17.909,29.086-19.657,41.226
			c-1.398,9.713-3.513,24.401,5.292,31.77c3.927,3.286,8.738,4.04,12.096,4.16"/>
		<path style="fill:none;stroke:#1E1E1E;stroke-width:4;stroke-miterlimit:10;" d="M230.716,595.999
			c-1.241,4.685-2.364,11.796-0.756,20.046c1.057,5.422,2.608,13.381,9.45,18.533c3.051,2.297,6.178,3.301,8.316,3.782"/>
		<path style="fill:none;stroke:#1E1E1E;stroke-width:4;stroke-miterlimit:10;" d="M263.225,585.409
			c-2.356,1.491-8.472,5.832-10.584,13.616c-2.092,7.708,0.953,14.335,3.402,19.667c2.995,6.519,6.919,10.414,8.316,11.725
			c1.948,1.827,4.805,4.507,9.072,6.052c5.538,2.004,10.945,1.838,14.553,1.702c7.655-0.288,11.879-0.576,15.309-0.514
			c5.395,0.097,8.565-0.15,16.129-2.196c9.475-2.564,11.737-0.072,25.705-6.051c10.067-4.31,31.328-8.102,37.171-9.582"/>
		<path style="fill:none;stroke:#1E1E1E;stroke-width:4;stroke-miterlimit:10;" d="M221.056,606.91"/>
		<path style="fill:none;stroke:#1E1E1E;stroke-width:4;stroke-miterlimit:10;" d="M214.481,526.379"/>
		<path style="fill:none;stroke:#1E1E1E;stroke-width:4;stroke-miterlimit:10;" d="M238.445,563.037"/>
		<path style="fill:none;stroke:#1E1E1E;stroke-width:4;stroke-miterlimit:10;" d="M405.357,477.617
			c4.52,8.945,11.179,25.037,12.096,46.143c1.111,25.558-6.781,45.07-11.34,54.463"/>
		<path style="fill:none;stroke:#1E1E1E;stroke-width:4;stroke-miterlimit:10;" d="M382.677,620.583
			c-0.642-3.618-3.006-19.181,6.804-31.014c5.885-7.098,13.426-9.568,21.169-12.103c11.802-3.865,21.215-3.573,34.777-3.026
			c19.712,0.796,29.568,1.194,37.045,7.564c9.586,8.167,11.485,20.299,12.096,24.206c0.762,4.867,2.231,14.251-3.024,22.693
			c-2.918,4.688-6.678,7.106-12.096,10.59c-1.584,1.019-5.134,3.2-18.901,8.321c-16.995,6.321-19.424,5.913-21.169,5.295
			c-5.883-2.083-8.587-8.172-11.34-14.372c-5.336-12.017-3.452-22.75-3.024-24.962c1.193-6.168,3.58-10.812,5.292-13.616"/>
		<path style="fill:none;stroke:#1E1E1E;stroke-width:4;stroke-miterlimit:10;" d="M406.113,598.646
			c-3.817,3.403-12.317,12.009-14.364,25.341c-0.634,4.13-2.832,18.438,5.67,24.962c5.513,4.231,12.905,3.178,16.632,2.648
			c8.28-1.179,13.883-5.493,16.255-7.564"/>
		<path style="fill:none;stroke:#1E1E1E;stroke-width:4;stroke-miterlimit:10;" d="M382.299,619.827
			c-0.195,0.702-2.958,11.273,3.78,18.154c2.454,2.507,5.294,3.631,7.182,4.16"/>
		<path style="fill:none;stroke:#1E1E1E;stroke-width:4;stroke-miterlimit:10;" d="M533.881,322.547
			c10.743,5.075,26.508,14.058,41.581,29.501c22.931,23.494,31.336,48.697,38.557,70.349c5.676,17.02,13.494,40.461,12.096,71.105
			c-1.3,28.516-10.176,54.4-7.56,55.22c2.469,0.774,7.603-23.16,20.413-24.962c7.695-1.083,14.523,6.333,21.925,14.372
			c7.154,7.77,19.79,21.495,18.901,40.848c-0.164,3.576-0.738,16.055-9.828,24.962c-1.606,1.574-4.377,3.917-19.657,9.077
			c-20.126,6.797-30.416,10.143-41.581,7.564c-6.797-1.57-11.924-4.579-15.12-6.808"/>
		<path style="fill:none;stroke:#1E1E1E;stroke-width:4;stroke-miterlimit:10;" d="M640.48,566.876
			c2.787,3.041,9.697,11.405,11.34,24.206c1.178,9.176-0.875,16.549-2.268,20.424"/>
		<path style="fill:none;stroke:#1E1E1E;stroke-width:4;stroke-miterlimit:10;" d="M531.093,465.62
			c-0.198,5.312-0.053,13.671,2.268,23.45c4.908,20.68,13.54,22.411,22.681,46.143c7.109,18.456,5.055,25.631,14.364,34.796
			c6.788,6.683,9.957,4.912,15.877,12.103c7.415,9.007,12.529,24.035,7.56,34.796c-2.006,4.346-7.534,12.062-7.56,12.103l0,0"/>
		<path style="fill:none;stroke:#1E1E1E;stroke-width:4;stroke-miterlimit:10;" d="M549.758,595.242
			c1.766,3.591,5.158,11.841,3.402,21.937c-0.617,3.546-1.664,9.568-6.804,14.75c-1.057,1.066-6.25,6.092-14.364,6.808
			c-7.9,0.697-13.769-3.117-18.145-6.052c-9.556-6.409-14.875-15.224-18.145-22.315c-7.386-16.021-7.31-29.752-7.938-42.36
			c-0.726-14.584-2.768-35.168-8.694-60.515"/>
		<path style="fill:none;stroke:#1E1E1E;stroke-width:4;stroke-miterlimit:10;" d="M576.975,601.294
			c6.063,10.844,5.727,23.206-0.756,31.014c-0.827,0.996-8.551,10.002-18.901,7.943c-6.081-1.21-9.741-5.578-10.962-7.186"/>
		<path style="fill:none;stroke:#1E1E1E;stroke-width:4;stroke-miterlimit:10;" d="M585.492,629.826
			c-3.402,0.63-5.493,0.339-8.895,0.969"/>
		
			<line style="fill:none;stroke:#1E1E1E;stroke-width:4;stroke-miterlimit:10;" x1="236.575" y1="638.737" x2="280.992" y2="638.737"/>
		<path style="fill:none;stroke:#1E1E1E;stroke-width:4;stroke-miterlimit:10;" d="M497.294,611.333
			c1.072-4.106,6.54-23.243,26-35.333c20.279-12.599,40.774-8.24,44.667-7.333"/>
		<path style="fill:none;stroke:#1E1E1E;stroke-width:6;stroke-miterlimit:10;" d="M324.961,185.667
			c12.643,11.893,21.175,9.635,46.06,3.333c56.409-14.285,88.943-24.584,103.625-40.667c12.854,8.086,50.71,8.27,84.481,3.933
			c32.186-4.133,55.191-20.483,67.5-33.448c-8.395,22.769-23.507,57.06-48.146,83.652c-24.566,26.514-47.523,32.06-92.434,42.069
			c-52.028,11.596-71.948,9.127-99.754-4.873C353.042,222.925,339.1,213.692,324.961,185.667z"/>
		<path style="fill:none;stroke:#1E1E1E;stroke-width:4;stroke-miterlimit:10;" d="M338.128,197l26.36,13.411
			c1.251,0.637,2.777,0.32,3.672-0.761l4.469-5.4l10.049,10.69c1.278,1.36,3.475,1.235,4.591-0.261l3.49-4.679v-10l32.215,36.997
			c1.662,1.908,4.794,1.029,5.22-1.466l3.952-23.169l4.483-20.612l5.75,13.5l16.299,14.798c1.399,1.27,3.61,0.946,4.586-0.672
			l11.384-18.876l9.947,10.575c1.306,1.388,3.558,1.223,4.647-0.341l11.887-17.073l10.823,14.509
			c1.576,2.112,4.914,1.312,5.361-1.285l2.275-13.224l10.397,9.338c1.725,1.55,4.481,0.64,4.944-1.633l4.633-22.725l12.767,31.547
			c1.037,2.563,4.694,2.478,5.611-0.131l16.013-45.558l6.719,6.816c1.291,1.31,3.446,1.16,4.544-0.316L595.628,157l4.5,5
			l6.732-9.733"/>
		<path style="fill:none;stroke:#1E1E1E;stroke-width:4;stroke-miterlimit:10;" d="M282.628,208.5
			c-15.75,4.038-37.921,11.612-61.5,26.5c-20.544,12.971-35.439,27.253-45.5,38.5"/>
		<path style="fill:none;stroke:#1E1E1E;stroke-width:4;stroke-miterlimit:10;" d="M276.628,183c-15.903-2.487-48.154-5.34-85.5,7.5
			c-33.937,11.668-56.262,30.856-67.5,42"/>
		<path style="fill:none;stroke:#1E1E1E;stroke-width:4;stroke-miterlimit:10;" d="M307.752,136.667
			c2.6,2.231,18.623-23.565,50.667-32.667c19.15-5.439,37.17-2.97,50.667,0.667c2.562-2.178,0.901-2.724-1.208-4.792
			c-6.375-6.25-27.666-12.375-56.625-3.875C320.489,105.03,305.012,134.316,307.752,136.667z"/>
		<path style="fill:none;stroke:#1E1E1E;stroke-width:4;stroke-miterlimit:10;" d="M521.901,90.656
			c2.358,2.254,7.499-14.19,27.054-16.389c19.355-2.177,30.113,4.793,37.948-2.302c2.541-2.301,1.786-4.102-1.012-5.881
			c-9.011-5.73-23.805-7.867-45.446,0.334C522.961,73.042,519.535,88.393,521.901,90.656z"/>
		<path style="fill:none;stroke:#1E1E1E;stroke-width:4;stroke-miterlimit:10;" d="M226.628,577.333
			c-46.515,5.019-76.121-5.388-94.667-16c-26.53-15.18-35.008-33.402-68-42.667c-6.842-1.921-44.018-12.361-57.333,4.667
			c-9.123,11.666-2.612,30.553,1.333,42c12.237,35.5,40.536,54.995,52,62.667c27.89,18.664,52.966,22.362,86.667,27.333
			c42.368,6.249,57.66-0.872,66-6.667c7.501-5.212,12.353-11.418,15.333-16"/>
		<g>
			<g>
				<path style="fill:#1E1E1E;" d="M25.669,596.871c5.485,1.666,10.304,4.659,15.469,7.061c4.701,2.187,9.89,2.545,14.543,4.584
					c2.919,1.279,5.467-3.027,2.524-4.317c-5.197-2.278-10.796-2.768-15.99-5.281c-5.046-2.442-9.822-5.229-15.216-6.868
					C23.912,591.112,22.593,595.937,25.669,596.871L25.669,596.871z"/>
			</g>
		</g>
		<g>
			<g>
				<path style="fill:#1E1E1E;" d="M55.275,625.032c7.177,0.945,13.818,4.067,20.915,5.39c6.728,1.254,13.579,1.383,20.402,1.476
					c3.219,0.044,3.22-4.956,0-5c-7.613-0.104-15.273-0.21-22.696-2.095c-6.256-1.589-12.183-3.923-18.621-4.771
					C52.094,619.613,52.125,624.617,55.275,625.032L55.275,625.032z"/>
			</g>
		</g>
		<g>
			<g>
				<path style="fill:#1E1E1E;" d="M87.962,645.82c7.224,0.009,14.448,0.017,21.672,0.026c5.756,0.007,12.196,0.953,17.586-1.387
					c2.944-1.279,0.401-5.588-2.524-4.317c-2.797,1.215-6.421,0.715-9.409,0.712c-3.141-0.004-6.282-0.008-9.423-0.011
					c-5.968-0.007-11.935-0.014-17.903-0.022C84.744,640.816,84.739,645.816,87.962,645.82L87.962,645.82z"/>
			</g>
		</g>
		<g>
			<g>
				<path style="fill:#1E1E1E;" d="M120.326,655.141c13.701-1.44,27.254-3.776,40.635-7.057c3.124-0.766,1.801-5.589-1.329-4.821
					c-12.946,3.174-26.048,5.485-39.306,6.878C117.158,650.474,117.124,655.477,120.326,655.141L120.326,655.141z"/>
			</g>
		</g>
		<g>
			<g>
				<path style="fill:#1E1E1E;" d="M159.742,660.189c8.689-4.969,16.735-11.263,24.95-16.969c2.625-1.823,0.128-6.159-2.524-4.317
					c-8.215,5.707-16.262,12-24.95,16.969C154.425,657.469,156.941,661.791,159.742,660.189L159.742,660.189z"/>
			</g>
		</g>
		<g>
			<g>
				<path style="fill:#1E1E1E;" d="M182.412,661.024c3.763,1.37,7.247-3.018,9.46-5.434c3.165-3.454,5.8-7.329,7.909-11.508
					c1.447-2.866-2.865-5.4-4.317-2.524c-1.511,2.994-3.255,5.871-5.376,8.476c-0.83,1.02-5.146,6.606-6.347,6.168
					C180.713,655.1,179.407,659.93,182.412,661.024L182.412,661.024z"/>
			</g>
		</g>
		<g>
			<g>
				<path style="fill:#1E1E1E;" d="M122.665,556.749c-11.587,1.152-19.231-9.484-28.422-14.707
					c-2.802-1.592-5.324,2.726-2.524,4.317c10.108,5.744,18.123,16.664,30.945,15.39C125.837,561.433,125.87,556.43,122.665,556.749
					L122.665,556.749z"/>
			</g>
		</g>
		<g>
			<g>
				<path style="fill:#1E1E1E;" d="M73.965,521.669c-11.831,0.337-23.647,0.576-35.419-0.875c-3.186-0.393-3.157,4.611,0,5
					c11.772,1.452,23.588,1.212,35.419,0.875C77.176,526.577,77.189,521.577,73.965,521.669L73.965,521.669z"/>
			</g>
		</g>
		<g>
			<g>
				<path style="fill:#1E1E1E;" d="M5.297,531.826c5.71-0.489,11.439-0.932,16.955,0.965c4.86,1.672,9.361,3.977,14.349,5.355
					c3.106,0.858,4.432-3.964,1.329-4.821c-5.494-1.518-10.49-4.34-15.947-5.869c-5.438-1.523-11.134-1.106-16.686-0.63
					C2.115,527.099,2.086,532.101,5.297,531.826L5.297,531.826z"/>
			</g>
		</g>
	</g>
</g>
<g id="Layer_1">
</g>
</svg>
