<?xml version="1.0" encoding="iso-8859-1"?>
<!-- Generator: Adobe Illustrator 18.1.1, SVG Export Plug-In . SVG Version: 6.00 Build 0)  -->
<svg version="1.1" xmlns="http://www.w3.org/2000/svg" xmlns:xlink="http://www.w3.org/1999/xlink" x="0px" y="0px"
	 viewBox="0 0 660.665 663.674" style="enable-background:new 0 0 660.665 663.674;" xml:space="preserve">
<g id="Layer_9">
	<path style="fill:none;stroke:#1E1E1E;stroke-width:3;stroke-miterlimit:10;" d="M174.307,171.756
		C199.355,79.861,256.842,9.304,361.227,9.304s191.091,67.201,191.091,162.452s-84.621,172.467-189.006,172.467
		c-71.612,0-144.842-28.121-176.909-81.695C171.727,238.01,165.234,205.039,174.307,171.756z"/>
	<path style="fill:none;stroke:#1E1E1E;stroke-width:4;stroke-miterlimit:10;" d="M221.649,301.15
		c-5.507,1.243-34.613,15.184-81.451,8.82c-43.592-5.923-55.981-10.386-49.384-36.867c18.884-75.799,95.384-139.799,95.384-139.799"
		/>
	<path style="fill:none;stroke:#1E1E1E;stroke-width:4;stroke-miterlimit:10;" d="M227.964,63.331"/>
	
		<line style="fill:none;stroke:#1E1E1E;stroke-width:4;stroke-miterlimit:10;" x1="217.887" y1="142.952" x2="236.221" y2="133.286"/>
	<path style="fill:none;stroke:#1E1E1E;stroke-width:4;stroke-miterlimit:10;" d="M536.197,151.279"/>
	<path style="fill:none;stroke:#1E1E1E;stroke-width:4;stroke-miterlimit:10;" d="M523.463,141.883"/>
	<path style="fill:none;stroke:#1E1E1E;stroke-width:4;stroke-miterlimit:10;" d="M348.933,92.955l60.882-12.159
		c0.725-0.145,1.205,0.73,0.695,1.264l-23.105,24.21l-38.719-7.226C347.936,98.814,348.163,93.109,348.933,92.955z"/>
	<path style="fill:none;stroke:#1E1E1E;stroke-width:4;stroke-miterlimit:10;" d="M461.726,201.838"/>
	<path style="fill:none;stroke:#1E1E1E;stroke-width:4;stroke-miterlimit:10;" d="M202.479,135.179
		c-22.498-4.05-55.13-7.941-92.939-5.416c-30.099,2.01-54.294,7.474-71.824,12.697"/>
	<path style="fill:none;stroke:#1E1E1E;stroke-width:4;stroke-miterlimit:10;" d="M254.697,321.026
		c-16.65,17.548-40.154,46.874-56.45,88.755c-25.591,65.773-18.536,124.301-13.608,150.783"/>
	<path style="fill:none;stroke:#1E1E1E;stroke-width:4;stroke-miterlimit:10;" d="M206.438,584.77
		c-0.639-2.088-5.862-18.221-21.547-23.828c-16.871-6.031-31.79,5.14-35.533,7.943c-15.38,11.515-17.909,29.086-19.657,41.226
		c-1.398,9.713-3.513,24.401,5.292,31.77c3.927,3.286,8.738,4.04,12.096,4.16"/>
	<path style="fill:none;stroke:#1E1E1E;stroke-width:4;stroke-miterlimit:10;" d="M140.286,603.303
		c-1.241,4.685-2.364,11.796-0.756,20.046c1.057,5.422,2.608,13.381,9.45,18.533c3.051,2.297,6.178,3.301,8.316,3.782"/>
	<path style="fill:none;stroke:#1E1E1E;stroke-width:4;stroke-miterlimit:10;" d="M172.795,592.713
		c-2.356,1.491-8.472,5.832-10.584,13.616c-2.092,7.708,0.953,14.335,3.402,19.667c2.995,6.519,6.919,10.414,8.316,11.725
		c1.948,1.827,4.805,4.507,9.072,6.051c5.538,2.004,10.945,1.838,14.553,1.702c7.655-0.288,11.879-0.576,15.309-0.514
		c5.395,0.097,8.565-0.15,16.128-2.196c9.475-2.564,11.737-0.072,25.705-6.052c10.067-4.31,31.328-8.102,37.171-9.581"/>
	<path style="fill:none;stroke:#1E1E1E;stroke-width:4;stroke-miterlimit:10;" d="M130.626,614.214"/>
	<path style="fill:none;stroke:#1E1E1E;stroke-width:4;stroke-miterlimit:10;" d="M124.05,533.683"/>
	<path style="fill:none;stroke:#1E1E1E;stroke-width:4;stroke-miterlimit:10;" d="M148.014,570.341"/>
	<path style="fill:none;stroke:#1E1E1E;stroke-width:4;stroke-miterlimit:10;" d="M314.927,484.921
		c4.52,8.945,11.179,25.037,12.096,46.143c1.111,25.558-6.781,45.07-11.34,54.463"/>
	<path style="fill:none;stroke:#1E1E1E;stroke-width:4;stroke-miterlimit:10;" d="M292.246,627.887
		c-0.642-3.618-3.006-19.181,6.804-31.014c5.885-7.098,13.426-9.568,21.169-12.103c11.802-3.865,21.215-3.573,34.777-3.026
		c19.712,0.796,29.568,1.194,37.045,7.564c9.586,8.167,11.485,20.299,12.096,24.206c0.762,4.867,2.231,14.252-3.024,22.693
		c-2.918,4.688-6.678,7.106-12.096,10.59c-1.584,1.019-5.134,3.2-18.901,8.321c-16.995,6.321-19.424,5.913-21.169,5.295
		c-5.883-2.083-8.587-8.172-11.34-14.372c-5.336-12.017-3.452-22.75-3.024-24.962c1.193-6.168,3.58-10.812,5.292-13.616"/>
	<path style="fill:none;stroke:#1E1E1E;stroke-width:4;stroke-miterlimit:10;" d="M315.683,605.95
		c-3.817,3.403-12.317,12.009-14.364,25.341c-0.634,4.13-2.832,18.438,5.67,24.962c5.513,4.231,12.905,3.178,16.633,2.648
		c8.28-1.179,13.883-5.493,16.254-7.564"/>
	<path style="fill:none;stroke:#1E1E1E;stroke-width:4;stroke-miterlimit:10;" d="M291.868,627.131
		c-0.195,0.702-2.958,11.273,3.78,18.154c2.454,2.507,5.294,3.631,7.182,4.16"/>
	<path style="fill:none;stroke:#1E1E1E;stroke-width:4;stroke-miterlimit:10;" d="M443.451,329.851
		c10.743,5.075,26.508,14.058,41.581,29.501c22.931,23.494,31.336,48.697,38.557,70.349c5.676,17.02,13.494,40.461,12.096,71.105
		c-1.3,28.516-10.176,54.4-7.56,55.22c2.469,0.774,7.603-23.16,20.413-24.962c7.695-1.083,14.523,6.333,21.925,14.372
		c7.154,7.77,19.79,21.495,18.901,40.848c-0.164,3.576-0.738,16.055-9.828,24.962c-1.606,1.574-4.377,3.917-19.657,9.077
		c-20.126,6.797-30.416,10.143-41.581,7.564c-6.797-1.57-11.924-4.579-15.12-6.808"/>
	<path style="fill:none;stroke:#1E1E1E;stroke-width:4;stroke-miterlimit:10;" d="M550.05,574.18
		c2.787,3.041,9.697,11.405,11.34,24.206c1.178,9.176-0.875,16.55-2.268,20.424"/>
	<path style="fill:none;stroke:#1E1E1E;stroke-width:4;stroke-miterlimit:10;" d="M440.663,472.924
		c-0.198,5.312-0.053,13.671,2.268,23.45c4.908,20.68,13.54,22.411,22.681,46.143c7.109,18.456,5.055,25.631,14.364,34.796
		c6.788,6.683,9.957,4.912,15.876,12.103c7.415,9.007,12.529,24.035,7.56,34.796c-2.006,4.346-7.534,12.062-7.56,12.103l0,0"/>
	<path style="fill:none;stroke:#1E1E1E;stroke-width:4;stroke-miterlimit:10;" d="M459.327,602.546
		c1.766,3.592,5.158,11.841,3.402,21.937c-0.617,3.546-1.664,9.568-6.804,14.751c-1.057,1.066-6.25,6.092-14.364,6.808
		c-7.9,0.697-13.769-3.117-18.145-6.052c-9.556-6.409-14.875-15.224-18.145-22.315c-7.386-16.021-7.31-29.752-7.938-42.36
		c-0.726-14.584-2.768-35.168-8.694-60.515"/>
	<path style="fill:none;stroke:#1E1E1E;stroke-width:4;stroke-miterlimit:10;" d="M486.544,608.598
		c6.063,10.844,5.727,23.206-0.756,31.014c-0.827,0.996-8.551,10.002-18.901,7.943c-6.081-1.21-9.741-5.578-10.962-7.186"/>
	<path style="fill:none;stroke:#1E1E1E;stroke-width:4;stroke-miterlimit:10;" d="M495.061,637.13
		c-3.402,0.63-5.493,0.339-8.895,0.969"/>
	
		<line style="fill:none;stroke:#1E1E1E;stroke-width:4;stroke-miterlimit:10;" x1="146.145" y1="646.042" x2="190.561" y2="646.042"/>
	<path style="fill:none;stroke:#1E1E1E;stroke-width:4;stroke-miterlimit:10;" d="M406.864,618.637
		c1.072-4.106,6.54-23.243,26-35.333c20.279-12.599,40.774-8.24,44.667-7.333"/>
	<path style="fill:none;stroke:#1E1E1E;stroke-width:4;stroke-miterlimit:10;" d="M228.391,108.017
		c2.504,2.149,19.675-11.801,48.473-22.713c17.211-6.521,31.754-2.252,43.505-8.333c2.221-2.355-3.459-2.993-5.505-5
		c-6.182-6.066-25.989-21.81-52-11.668C235.232,71.077,225.752,105.752,228.391,108.017z"/>
	<path style="fill:none;stroke:#1E1E1E;stroke-width:4;stroke-miterlimit:10;" d="M425.364,73.637
		c2.358,2.254,3.366-10.467,22.921-12.667c19.355-2.177,28.744,3.928,36.579-3.167c2.541-2.301-7.568-12.502-10.366-14.281
		c-9.011-5.73-14.16-17.42-35.801-9.219C421.213,40.93,422.997,71.375,425.364,73.637z"/>
	<path style="fill:none;stroke:#1E1E1E;stroke-width:4;stroke-miterlimit:10;" d="M216.697,118.304
		c-7.885-7.336-18.149-15.661-31-23.5c-10.47-6.387-20.374-11.058-29-14.5"/>
	<path style="fill:none;stroke:#1E1E1E;stroke-width:4;stroke-miterlimit:10;" d="M199.197,120.804
		c-12.46-6.225-29.863-13.308-51.5-17.5c-17.873-3.463-33.637-3.986-46-3.5"/>
	<path style="fill:none;stroke:#1E1E1E;stroke-width:4;stroke-miterlimit:10;" d="M227.967,137.637
		c-7.984,7.1-24.104,36.333,0,66.424c14.41,17.99,25.537,54.106,62.73,73.742c25.608,13.52,48.523,15.334,65.5,16.5
		c17.152,1.178,68.473,3.963,116.5-29c11.206-7.691,26.873-18.874,36-42c17.908-45.375,25.869-96.442,22.167-108
		c-2.971-2.898-16.524-2.713-21.167-2c-5.031,0.773-6.968,5.754-13,11.5c-4.898,4.665-9.293,6.784-17,10.5
		c-16.384,7.899-33.897,6.561-57.5,4.5c-7.402-0.646-19.781-10.218-32.667-12.833c-4.829,2.84-14.663,4.44-23.333,8.667
		c-6.511,3.174-25.338,10.667-53.171,29.167c-18.855,12.532-30.853,12.271-36.329,12.5
		C240.119,178.835,235.761,130.707,227.967,137.637z"/>
	<path style="fill:none;stroke:#1E1E1E;stroke-width:4;stroke-miterlimit:10;" d="M231.531,189.637l31.918,31.304
		c1.395,1.368,3.705,1.059,4.691-0.628l15.391-26.342"/>
	<path style="fill:none;stroke:#1E1E1E;stroke-width:4;stroke-miterlimit:10;" d="M334.531,201.838l22.71,30.454
		c1.546,2.074,4.816,1.349,5.342-1.184l5.615-27.046l20.279,19.92c1.651,1.621,4.438,0.843,5.009-1.399l3.045-11.946l9.533,9.533
		c1.585,1.585,4.286,0.935,4.976-1.198l4.824-14.911l11.74,29.01c1.031,2.547,4.658,2.484,5.599-0.098l16.327-44.78"/>
	<path style="fill:none;stroke:#1E1E1E;stroke-width:4;stroke-miterlimit:10;" d="M523.463,141.883l-7.846,31.408
		c-0.647,2.591-4.103,3.108-5.481,0.82l-6.271-10.418l-2.548,9.069c-0.744,2.649-4.364,2.982-5.58,0.514l-3.873-7.865"/>
	<path style="fill:none;stroke:#1E1E1E;stroke-width:4;stroke-miterlimit:10;" d="M482.531,149.971
		c5.215,12.061,5.439,23.171,6.417,30.333c1.745,12.779,0.5,33.945-7.75,52.667c-1.658,3.762-5.724,4.865-7.667,6
		c-2.019-2.449-3.555-7.276-6.519-12.542c-6.43-11.425-8.678-18.553-12.481-29.458c-2.187-6.273-6.007-15.306-13-25.667"/>
	<path style="fill:none;stroke:#1E1E1E;stroke-width:4;stroke-miterlimit:10;" d="M351.531,188.637
		c-5.08,7.766-5.029,25.902-9,42.833c-3.906,16.655-4.713,33.679-3.667,42.833c-6.379-0.895-18.191-17.798-21.338-20.667
		c-22.667-20.667-34.198-55.732-33.996-58.333"/>
	<path style="fill:none;stroke:#1E1E1E;stroke-width:3;stroke-miterlimit:10;" d="M506.197,67.304c9.245-12.993,22.524-28.813,41-44
		c11.263-9.258,22.218-16.44,32-22"/>
	<path style="fill:none;stroke:#1E1E1E;stroke-width:3;stroke-miterlimit:10;" d="M507.197,85.304
		c10.902-10.158,25.785-22.122,45-33c15.797-8.943,30.594-14.928,43-19"/>
	<path style="fill:none;stroke:#1E1E1E;stroke-width:3;stroke-miterlimit:10;" d="M523.197,90.304c14.309-2.084,34.024-3.365,57,0
		c16.765,2.455,30.924,6.748,42,11"/>
	
		<ellipse style="fill:#0D0D0D;stroke:#1E1E1E;stroke-width:4;stroke-miterlimit:10;" cx="267.707" cy="73.998" rx="12.833" ry="11.306"/>
	<ellipse style="fill:#FFFFFF;" cx="265.197" cy="70.333" rx="4.612" ry="3.665"/>
	
		<ellipse style="fill:#0D0D0D;stroke:#1E1E1E;stroke-width:4;stroke-miterlimit:10;" cx="444.457" cy="45.674" rx="12.833" ry="11.306"/>
	<ellipse style="fill:#FFFFFF;" cx="441.947" cy="42.009" rx="4.612" ry="3.665"/>
	<g>
		<g>
			<path style="fill:#1E1E1E;" d="M120.839,636.571c-2.458,9.253-7.653,17.013-15.167,22.924c1.423,0.589,2.845,1.178,4.268,1.768
				c-0.381-9.538-0.762-19.076-1.143-28.615c-0.067-1.69-2.154-3.384-3.762-2.159c-10.312,7.858-21.539,14.279-33.602,19.045
				c0.811,1.393,1.622,2.786,2.432,4.178c6.613-5.415,12.328-11.615,17.286-18.571c1.073-1.506-0.351-3.892-2.159-3.762
				c-16.475,1.19-32.837-0.219-48.853-4.27c-0.222,1.637-0.443,3.274-0.665,4.911c7.859-0.869,15.718-1.738,23.578-2.607
				c2.805-0.31,3.393-3.89,0.665-4.911c-6.295-2.355-12.851-4.391-18.996-7.107c-0.658-0.182-1.261-0.478-1.809-0.886
				c-1.442-0.514-1.202-1,0.721-1.457c1.035-0.981,2.832-1.585,4.064-2.275c2.98-1.668,5.961-3.336,8.941-5.004
				c2.032-1.138,1.299-3.835-0.597-4.569c-10.504-4.07-21.008-8.14-31.512-12.21c0,1.607,0,3.214,0,4.821
				c4.092-1.562,8.205-2.745,12.502-3.597c2.028-0.402,2.521-3.674,0.597-4.569c-11.3-5.256-22.599-10.513-33.899-15.769
				c-0.199,1.523-0.398,3.046-0.597,4.569c9.196-1.434,18.425-1.9,27.721-1.505c1.815,0.077,3.224-2.213,2.159-3.762
				c-6.843-9.949-14.622-19.13-23.356-27.471c-0.589,1.423-1.179,2.845-1.768,4.268c9.95-0.857,19.213,2.078,28.525,5.205
				c2.515,0.845,3.984-2.438,2.432-4.178c-7.236-8.115-14.473-16.23-21.709-24.345c-0.169,1.309-0.337,2.618-0.506,3.926
				c1.231-0.06,2.462-0.119,3.694-0.179c1.545,0.806,3.93-0.157,3.762-2.159c-1.929-22.971,0.883-46.09,8.567-67.845
				c3.762-10.65,7.936-22.234,17.878-28.563c9.7-6.175,21.307-10.006,32.489-12.407c5.679-1.219,11.443-2.004,17.242-2.341
				c5.375-0.312,15.94-2.087,18.109,4.52c3.153,9.605-12.62,17.215-18.795,21.447c-15.565,10.668-29.282,23.45-29.004,43.775
				c0.319,23.397,16.514,41.594,32.885,56.438c1.266,1.148,3.838,0.868,4.178-1.103c1.08-6.251,2.16-12.503,3.239-18.754
				c-1.393,0.368-2.786,0.735-4.178,1.103c4.916,6.016,8.927,12.64,11.948,19.8c0.735,1.742,3.535,2.773,4.569,0.597
				c0.961-2.021,2.415-7.509,4.169-8.771c0.136-0.962,0.502-1.062,1.099-0.3c0.3,0.551,0.6,1.102,0.901,1.653
				c1,1.551,1.819,3.339,2.702,4.96c3.302,6.062,6.604,12.123,9.906,18.185c0.663,1.217,2.257,1.519,3.42,0.897
				c2.798-1.496,4.659-3.345,6.19-6.122c-1.523-0.199-3.046-0.398-4.569-0.597c2.328,5.554,4.656,11.108,6.984,16.663
				c1.225,2.923,6.066,1.639,4.821-1.329c-2.328-5.554-4.656-11.108-6.984-16.663c-0.771-1.84-3.427-2.669-4.569-0.597
				c-1.05,1.904-2.479,3.304-4.396,4.329c1.14,0.299,2.28,0.598,3.42,0.897c-2.552-4.684-5.103-9.368-7.655-14.052
				c-2.145-3.938-4.079-9.504-7.287-12.699c-6.545-6.519-10.53,6.943-12.47,11.024c1.523,0.199,3.046,0.398,4.569,0.597
				c-3.378-8.007-7.735-15.277-13.234-22.007c-1.142-1.398-3.872-0.673-4.178,1.103c-1.08,6.251-2.16,12.503-3.239,18.754
				c1.393-0.368,2.786-0.735,4.178-1.103c-17.225-15.618-36.125-36.835-30.509-62.108c2.595-11.675,11.294-19.989,20.627-26.758
				c7.605-5.516,17.401-10.123,23.145-17.749c4.502-5.977,4.998-15.762-2.532-19.598c-4.12-2.099-9.388-1.706-13.847-1.586
				c-6.246,0.169-12.491,0.84-18.637,1.968c-11.396,2.093-22.605,5.825-32.897,11.17c-10.563,5.485-16.07,13.375-20.662,24.135
				c-10.611,24.865-14.855,52.117-12.594,79.036c1.254-0.72,2.508-1.439,3.762-2.159c-3.008-1.57-5.817-1.568-8.741,0.179
				c-1.443,0.862-1.576,2.726-0.506,3.926c7.236,8.115,14.473,16.23,21.709,24.345c0.811-1.393,1.622-2.786,2.432-4.178
				c-9.7-3.257-19.509-6.274-29.855-5.383c-2.043,0.176-3.444,2.667-1.768,4.268c8.427,8.048,15.969,16.856,22.574,26.459
				c0.72-1.254,1.439-2.508,2.159-3.762c-9.751-0.414-19.41,0.181-29.05,1.684c-2.074,0.323-2.472,3.697-0.597,4.569
				c11.3,5.256,22.599,10.513,33.899,15.769c0.199-1.523,0.398-3.046,0.597-4.569c-4.297,0.852-8.409,2.036-12.502,3.597
				c-2.371,0.905-2.356,3.909,0,4.821c10.504,4.07,21.008,8.14,31.512,12.21c-0.199-1.523-0.398-3.046-0.597-4.569
				c-4.816,2.695-10.048,5.115-14.631,8.188c-2.242,1.503-4.158,3.536-2.842,6.381c1.393,3.01,5.75,3.817,8.56,4.868
				c5.729,2.143,11.458,4.287,17.187,6.43c0.222-1.637,0.443-3.274,0.665-4.911c-7.859,0.869-15.718,1.738-23.578,2.607
				c-2.62,0.29-3.608,4.166-0.665,4.911c16.426,4.154,33.28,5.669,50.183,4.449c-0.72-1.254-1.439-2.508-2.159-3.762
				c-4.711,6.61-10.228,12.42-16.504,17.559c-1.888,1.546,0.143,5.083,2.432,4.178c12.483-4.932,24.116-11.411,34.796-19.549
				c-1.254-0.72-2.508-1.439-3.762-2.159c0.381,9.538,0.762,19.076,1.143,28.615c0.093,2.329,2.596,3.083,4.268,1.768
				c8.15-6.41,13.793-15.117,16.453-25.13C126.488,634.788,121.666,633.459,120.839,636.571L120.839,636.571z"/>
		</g>
	</g>
	<path style="fill:none;stroke:#1E1E1E;stroke-width:4;stroke-miterlimit:10;" d="M544.197,117.971
		c28.135,31.048,53.055,53.797,71.333,69.333c21.774,18.508,46.883,37.625,42.667,54.667c-1.518,6.136-6.794,11.825-10.667,16
		c-1.67,1.8-10.184,10.771-24.667,16.667c-27.591,11.232-56.45,3.002-78.667-3.333c-9.352-2.667-16.761-5.481-21.333-7.333"/>
	<path style="fill:none;stroke:#1E1E1E;stroke-width:4;stroke-miterlimit:10;" d="M548.864,190.637
		c7.765,9.678,19.067,21.796,34.667,33.333c16.944,12.532,33.148,20.08,45.333,24.667c-9.648,3.451-22.55,6.911-38,8
		c-26.25,1.85-47.41-4.024-60-8.667"/>
	<path style="fill:none;stroke:#1E1E1E;stroke-width:4;stroke-miterlimit:10;" d="M178.197,238.637
		c-2.266,4.714-9.084,17.284-24,25.333c-10.691,5.769-20.71,6.608-26,6.667c5.197,3.535,17.665,10.995,35.333,12
		c16.933,0.963,29.712-4.51,35.333-7.333"/>
</g>
<g id="Layer_1">
</g>
</svg>
