<?xml version="1.0" encoding="iso-8859-1"?>
<!-- Generator: Adobe Illustrator 18.1.1, SVG Export Plug-In . SVG Version: 6.00 Build 0)  -->
<svg version="1.1" xmlns="http://www.w3.org/2000/svg" xmlns:xlink="http://www.w3.org/1999/xlink" x="0px" y="0px"
	 viewBox="0 0 618.485 770.032" style="enable-background:new 0 0 618.485 770.032;" xml:space="preserve">
<g id="Layer_1_1_">
	<g>
		<path style="fill:none;stroke:#1F1F1F;stroke-width:5;stroke-miterlimit:10;" d="M179.957,279.048
			c25.049-91.895,84.621-172.467,189.006-172.467s189.006,77.216,189.006,172.467s-84.621,172.467-189.006,172.467
			c-71.612,0-144.842-28.121-176.909-81.695C177.378,345.302,170.885,312.331,179.957,279.048z"/>
		<path style="fill:none;stroke:#1F1F1F;stroke-width:5;stroke-miterlimit:10;" d="M544.544,215.093
			c0,0,12.455-87.208,10.149-116.329c-1.899-23.981-16.595-70.662-31.69-89.386c-1.409-1.748-5.649-3.747-7.749-4.539
			c-2.792-1.053-11.718-2.269-11.718-2.269c-6.436,2.753-11.359,9.872-11.766,11.016c-5.287,14.881-48.507,106.834-48.507,106.834"
			/>
		<path style="fill:none;stroke:#1F1F1F;stroke-width:5;stroke-miterlimit:10;" d="M536.078,183.139
			c0.835,1.128,2.62,0.609,2.721-0.791c1.036-14.276,4.342-62.661,2.915-80.684c-1.386-17.497-8.977-51.736-19.99-65.397
			c-1.028-1.276-4.122-2.734-5.654-3.312c-2.037-0.768-8.55-1.656-8.55-1.656c-4.696,2.009-8.288,7.203-8.585,8.037
			c-3.858,10.858-17.702,83.129-17.702,83.129c17.011,10.842,25.898,20.687,32.509,29.879
			C526.847,170.567,533.141,179.172,536.078,183.139z"/>
		<path style="fill:none;stroke:#1F1F1F;stroke-width:4;stroke-miterlimit:10;" d="M176.177,300.228
			c-5.021-2.582-12.022-6.83-18.901-13.616c-15.142-14.939-19.774-32.395-24.193-49.925c-12.47-49.472-9.632-74.208-9.828-77.913
			c-2.467-46.571,7.361-125.224,24.987-104.388c62.712,74.131,85.372,116.237,85.372,116.237"/>
		<path style="fill:none;stroke:#1F1F1F;stroke-miterlimit:10;" d="M233.614,170.623"/>
		<path style="fill:none;stroke:#1F1F1F;stroke-width:4;stroke-miterlimit:10;" d="M202.638,218.533
			c0.098-2.498,0.173-6.168,0-10.59c-1.099-28.059-7.685-49.023-16.633-67.701c-6.192-12.925-18.519-28.621-32.279-47.044
			c-0.735-0.984-2.276-0.725-2.648,0.447c-3.37,10.61-14.801,49.924-11.19,84.798c5.072,48.977,27.785,82.713,38.557,96.824"/>
		<ellipse style="stroke:#1F1F1F;stroke-width:4;stroke-miterlimit:10;" cx="294.432" cy="275.833" rx="15.687" ry="17.587"/>
		<path style="fill:none;stroke:#1F1F1F;stroke-width:4;stroke-miterlimit:10;" d="M241.195,267.287
			c0-28.826,13.527-52.194,42.337-52.194s49.141,23.368,49.141,52.194s-20.331,52.194-49.141,52.194
			S241.195,296.113,241.195,267.287z"/>
		<path style="fill:none;stroke:#1F1F1F;stroke-width:3;stroke-miterlimit:10;" d="M443.145,240.765
			c-4.324-26.385,7.503-50.289,26.416-53.392s37.749,15.772,42.072,42.157c4.324,26.385-7.503,50.289-26.416,53.392
			S447.468,267.15,443.145,240.765z"/>
		
			<ellipse style="fill:#020202;stroke:#1F1F1F;stroke-width:4;stroke-miterlimit:10;" cx="479.65" cy="237.236" rx="12.812" ry="17.442"/>
		
			<ellipse style="fill:#FFFFFF;stroke:#1F1F1F;stroke-width:4;stroke-miterlimit:10;" cx="289.202" cy="271.862" rx="8.316" ry="9.455"/>
		
			<ellipse style="fill:#FFFFFF;stroke:#1F1F1F;stroke-width:4;stroke-miterlimit:10;" cx="477.389" cy="235.147" rx="5.607" ry="6.781"/>
		<path style="fill:none;stroke:#1F1F1F;stroke-width:4;stroke-miterlimit:10;" d="M365.881,289.631l61.566-8.005
			c0.733-0.095,1.153,0.81,0.608,1.308l-24.693,22.589l-38.14-9.834C364.489,295.408,365.102,289.732,365.881,289.631z"/>
		<path style="fill:none;stroke:#1F1F1F;stroke-width:4;stroke-miterlimit:10;" d="M399.204,377.006
			c11.701-4.777,25.722-6.57,37.423-11.347c10.224-4.174,18.127-11.333,28.351-15.507"/>
		
			<line style="fill:none;stroke:#1F1F1F;stroke-width:4;stroke-miterlimit:10;" x1="460.442" y1="343.345" x2="470.27" y2="354.313"/>
		
			<line style="fill:none;stroke:#1F1F1F;stroke-width:4;stroke-miterlimit:10;" x1="226.83" y1="373.224" x2="175.786" y2="460.214"/>
		
			<line style="fill:none;stroke:#1F1F1F;stroke-width:4;stroke-miterlimit:10;" x1="209.064" y1="365.66" x2="129.304" y2="437.899"/>
		<path style="fill:none;stroke:#1F1F1F;stroke-width:4;stroke-miterlimit:10;" d="M206.796,350.909
			c-11.782,1.072-28.622,3.973-47.251,12.103c-14.831,6.473-26.269,14.284-34.399,20.802"/>
		<path style="fill:none;stroke:#1F1F1F;stroke-width:4;stroke-miterlimit:10;" d="M545.116,320.4
			c10.118,3.868,22.072,9.339,34.777,17.146c11.83,7.269,21.532,14.856,29.233,21.685"/>
		<path style="fill:none;stroke:#1F1F1F;stroke-width:4;stroke-miterlimit:10;" d="M543.1,291.151
			c8.944-1.461,20.655-2.52,34.273-1.513c14.392,1.064,26.381,4.1,35.281,7.06"/>
		
			<line style="fill:none;stroke:#1F1F1F;stroke-width:4;stroke-miterlimit:10;" x1="531.508" y1="279.048" x2="617.694" y2="241.928"/>
		<path style="fill:none;stroke:#1F1F1F;stroke-width:4;stroke-miterlimit:10;" d="M260.347,428.318
			c-16.65,17.548-40.154,46.874-56.45,88.755c-25.591,65.773-18.536,124.301-13.608,150.783"/>
		<path style="fill:none;stroke:#1F1F1F;stroke-width:4;stroke-miterlimit:10;" d="M212.088,692.062
			c-0.639-2.088-5.862-18.221-21.547-23.828c-16.871-6.031-31.79,5.14-35.533,7.943c-15.38,11.515-17.909,29.086-19.657,41.226
			c-1.398,9.713-3.513,24.401,5.292,31.77c3.927,3.286,8.738,4.04,12.096,4.16"/>
		<path style="fill:none;stroke:#1F1F1F;stroke-width:4;stroke-miterlimit:10;" d="M145.936,710.595
			c-1.241,4.685-2.364,11.796-0.756,20.046c1.057,5.422,2.608,13.381,9.45,18.533c3.051,2.297,6.178,3.301,8.316,3.782"/>
		<path style="fill:none;stroke:#1F1F1F;stroke-width:4;stroke-miterlimit:10;" d="M178.445,700.005
			c-2.356,1.491-8.472,5.832-10.584,13.616c-2.092,7.708,0.953,14.335,3.402,19.667c2.995,6.519,6.919,10.414,8.316,11.725
			c1.948,1.827,4.805,4.507,9.072,6.052c5.538,2.004,10.945,1.838,14.553,1.702c7.655-0.288,11.879-0.576,15.309-0.514
			c5.395,0.097,8.565-0.15,16.128-2.196c9.475-2.564,11.737-0.072,25.705-6.051c10.067-4.31,31.328-8.102,37.171-9.582"/>
		<path style="fill:none;stroke:#1F1F1F;stroke-width:4;stroke-miterlimit:10;" d="M153.665,677.633
			c-14.081,1.104-34.785,0.348-55.946-9.834c-11.235-5.406-24.409-11.744-28.729-25.719c-0.545-1.762-4.282-14.497,2.268-24.962
			c7.465-11.926,22.057-10.944,23.437-19.667c1.009-6.378-5.958-12.173-6.804-12.859c-9.463-7.672-23.768-4.103-39.313,0
			c-16.895,4.46-25.343,6.69-32.509,13.616c-16.074,15.535-14.38,39.685-13.608,50.681c0.556,7.934,1.887,26.899,15.12,41.604
			c2.335,2.594,8.109,7.024,19.657,15.885c11.67,8.955,17.609,13.481,22.681,15.885c11.405,5.407,21.449,5.725,31.753,6.051
			c9.949,0.315,25.785-0.412,44.605-6.808"/>
		<path style="fill:none;stroke:#1F1F1F;stroke-width:4;stroke-miterlimit:10;" d="M320.577,592.212
			c4.52,8.945,11.179,25.037,12.096,46.143c1.111,25.558-6.781,45.07-11.34,54.463"/>
		<path style="fill:none;stroke:#1F1F1F;stroke-width:4;stroke-miterlimit:10;" d="M297.897,735.179
			c-0.642-3.618-3.006-19.181,6.804-31.014c5.885-7.098,13.426-9.568,21.169-12.103c11.802-3.865,21.215-3.573,34.777-3.026
			c19.712,0.796,29.568,1.194,37.045,7.564c9.586,8.167,11.485,20.299,12.096,24.206c0.762,4.867,2.231,14.251-3.024,22.693
			c-2.918,4.688-6.678,7.106-12.096,10.59c-1.584,1.019-5.134,3.2-18.901,8.321c-16.995,6.321-19.424,5.913-21.169,5.295
			c-5.883-2.083-8.587-8.172-11.34-14.372c-5.336-12.017-3.452-22.75-3.024-24.962c1.193-6.168,3.58-10.812,5.292-13.616"/>
		<path style="fill:none;stroke:#1F1F1F;stroke-width:4;stroke-miterlimit:10;" d="M321.333,713.242
			c-3.817,3.403-12.317,12.009-14.364,25.341c-0.634,4.13-2.832,18.438,5.67,24.962c5.513,4.231,12.905,3.178,16.633,2.648
			c8.28-1.179,13.883-5.493,16.254-7.564"/>
		<path style="fill:none;stroke:#1F1F1F;stroke-width:4;stroke-miterlimit:10;" d="M297.519,734.422
			c-0.195,0.702-2.958,11.273,3.78,18.154c2.454,2.507,5.294,3.631,7.182,4.16"/>
		<path style="fill:none;stroke:#1F1F1F;stroke-width:4;stroke-miterlimit:10;" d="M449.101,437.143
			c10.743,5.075,26.508,14.058,41.581,29.501c22.931,23.494,31.336,48.697,38.557,70.349c5.676,17.02,13.494,40.461,12.096,71.105
			c-1.3,28.516-10.176,54.4-7.56,55.22c2.469,0.774,7.603-23.16,20.413-24.962c7.695-1.083,14.523,6.333,21.925,14.372
			c7.154,7.77,19.79,21.495,18.901,40.848c-0.164,3.576-0.738,16.055-9.828,24.962c-1.606,1.574-4.377,3.917-19.657,9.077
			c-20.125,6.797-30.416,10.143-41.581,7.564c-6.797-1.57-11.924-4.579-15.12-6.808"/>
		<path style="fill:none;stroke:#1F1F1F;stroke-width:4;stroke-miterlimit:10;" d="M555.7,681.472
			c2.787,3.041,9.697,11.405,11.34,24.206c1.178,9.176-0.875,16.549-2.268,20.424"/>
		<path style="fill:none;stroke:#1F1F1F;stroke-width:4;stroke-miterlimit:10;" d="M446.313,580.216
			c-0.198,5.312-0.053,13.671,2.268,23.45c4.908,20.68,13.54,22.411,22.681,46.143c7.109,18.456,5.055,25.631,14.364,34.796
			c6.788,6.683,9.957,4.912,15.876,12.103c7.415,9.007,12.529,24.035,7.56,34.796c-2.007,4.346-7.534,12.062-7.56,12.103l0,0"/>
		<path style="fill:none;stroke:#1F1F1F;stroke-width:4;stroke-miterlimit:10;" d="M464.978,709.838
			c1.766,3.591,5.158,11.841,3.402,21.937c-0.617,3.546-1.664,9.568-6.804,14.75c-1.057,1.066-6.25,6.092-14.364,6.808
			c-7.9,0.697-13.769-3.117-18.145-6.052c-9.556-6.409-14.875-15.224-18.145-22.315c-7.386-16.021-7.31-29.752-7.938-42.36
			c-0.726-14.584-2.768-35.168-8.694-60.515"/>
		<path style="fill:none;stroke:#1F1F1F;stroke-width:4;stroke-miterlimit:10;" d="M492.195,715.89
			c6.063,10.844,5.727,23.206-0.756,31.014c-0.827,0.996-8.551,10.002-18.901,7.943c-6.081-1.21-9.741-5.578-10.962-7.186"/>
		<path style="fill:none;stroke:#1F1F1F;stroke-width:4;stroke-miterlimit:10;" d="M500.712,744.422
			c-3.402,0.63-5.493,0.339-8.895,0.969"/>
		
			<line style="fill:none;stroke:#1F1F1F;stroke-width:3;stroke-miterlimit:10;" x1="151.795" y1="753.333" x2="196.212" y2="753.333"/>
		<path style="fill:none;stroke:#1F1F1F;stroke-width:5;stroke-miterlimit:10;" d="M412.514,725.929
			c1.073-4.106,6.54-23.243,26-35.333c20.279-12.599,40.774-8.24,44.667-7.333"/>
	</g>
</g>
<g id="Layer_1">
</g>
</svg>
