<?xml version="1.0" encoding="iso-8859-1"?>
<!-- Generator: Adobe Illustrator 18.1.1, SVG Export Plug-In . SVG Version: 6.00 Build 0)  -->
<svg version="1.1" xmlns="http://www.w3.org/2000/svg" xmlns:xlink="http://www.w3.org/1999/xlink" x="0px" y="0px"
	 viewBox="0 0 732.312 662.74" style="enable-background:new 0 0 732.312 662.74;" xml:space="preserve">
<g id="Layer_7">
	<g>
		<path style="fill:none;stroke:#1E1E1E;stroke-width:3;stroke-miterlimit:10;" d="M263.088,171.756
			C288.137,79.861,345.624,9.304,450.008,9.304S641.1,76.505,641.1,171.756s-84.621,172.467-189.006,172.467
			c-71.612,0-144.842-28.121-176.909-81.695C260.509,238.01,254.016,205.039,263.088,171.756z"/>
		<path style="fill:none;stroke:#1E1E1E;stroke-width:4;stroke-miterlimit:10;" d="M288.521,280.804
			c-5.507,1.243-17.542,15.466-64.542,20.5c-46.146,4.942-50.981-1.719-44.384-28.201c18.884-75.8,95.384-139.8,95.384-139.8"/>
		<path style="fill:none;stroke:#1E1E1E;stroke-width:4;stroke-miterlimit:10;" d="M316.745,63.331"/>
		<path style="fill:none;stroke:#1E1E1E;stroke-width:4;stroke-miterlimit:10;" d="M258.917,227.804
			c0.098-2.498-4.245,9.348-26.048,23c-1.041,0.652-26.985,14.771-26.985,16c0,4-7.028,16.571,26.985,12
			c34.228-4.6,30.423-9.57,42.315-16.276"/>
		
			<line style="fill:none;stroke:#1E1E1E;stroke-width:4;stroke-miterlimit:10;" x1="286.052" y1="165.411" x2="304.386" y2="155.744"/>
		<path style="fill:none;stroke:#1E1E1E;stroke-width:4;stroke-miterlimit:10;" d="M624.979,151.279"/>
		<path style="fill:none;stroke:#1E1E1E;stroke-width:4;stroke-miterlimit:10;" d="M612.244,141.883"/>
		<path style="fill:none;stroke:#1E1E1E;stroke-width:4;stroke-miterlimit:10;" d="M437.714,92.955l60.882-12.159
			c0.725-0.145,1.205,0.73,0.695,1.264l-23.105,24.21l-38.719-7.226C436.717,98.814,436.945,93.109,437.714,92.955z"/>
		<path style="fill:none;stroke:#1E1E1E;stroke-width:4;stroke-miterlimit:10;" d="M550.507,201.838"/>
		<path style="fill:none;stroke:#1E1E1E;stroke-width:4;stroke-miterlimit:10;" d="M291.26,135.179
			c-22.498-4.05-55.13-7.941-92.939-5.416c-30.099,2.01-54.294,7.474-71.824,12.697"/>
		<path style="fill:none;stroke:#1E1E1E;stroke-width:4;stroke-miterlimit:10;" d="M343.479,321.026
			c-16.65,17.548-40.154,46.874-56.45,88.755c-25.591,65.773-18.536,124.301-13.608,150.783"/>
		<path style="fill:none;stroke:#1E1E1E;stroke-width:4;stroke-miterlimit:10;" d="M295.219,584.77
			c-0.639-2.088-5.862-18.221-21.547-23.828c-16.871-6.031-31.79,5.14-35.533,7.943c-15.38,11.515-17.909,29.086-19.657,41.226
			c-1.398,9.713-3.513,24.401,5.292,31.77c3.927,3.286,8.738,4.04,12.096,4.16"/>
		<path style="fill:none;stroke:#1E1E1E;stroke-width:4;stroke-miterlimit:10;" d="M229.067,603.303
			c-1.241,4.685-2.364,11.796-0.756,20.046c1.057,5.422,2.608,13.381,9.45,18.533c3.051,2.297,6.178,3.301,8.316,3.782"/>
		<path style="fill:none;stroke:#1E1E1E;stroke-width:4;stroke-miterlimit:10;" d="M261.576,592.713
			c-2.356,1.491-8.472,5.832-10.584,13.616c-2.092,7.708,0.953,14.335,3.402,19.667c2.995,6.519,6.919,10.414,8.316,11.725
			c1.948,1.827,4.805,4.507,9.072,6.052c5.538,2.004,10.945,1.838,14.553,1.702c7.655-0.288,11.879-0.576,15.309-0.514
			c5.395,0.097,8.565-0.15,16.128-2.196c9.475-2.564,11.737-0.072,25.705-6.051c10.067-4.31,31.328-8.102,37.171-9.582"/>
		<path style="fill:none;stroke:#1E1E1E;stroke-width:4;stroke-miterlimit:10;" d="M219.407,614.214"/>
		<path style="fill:none;stroke:#1E1E1E;stroke-width:4;stroke-miterlimit:10;" d="M212.832,533.683"/>
		<path style="fill:none;stroke:#1E1E1E;stroke-width:4;stroke-miterlimit:10;" d="M236.796,570.341"/>
		<path style="fill:none;stroke:#1E1E1E;stroke-width:4;stroke-miterlimit:10;" d="M403.708,484.921
			c4.52,8.945,11.179,25.037,12.096,46.143c1.111,25.558-6.781,45.07-11.34,54.463"/>
		<path style="fill:none;stroke:#1E1E1E;stroke-width:4;stroke-miterlimit:10;" d="M381.028,627.887
			c-0.642-3.618-3.006-19.181,6.804-31.014c5.885-7.098,13.426-9.568,21.169-12.103c11.802-3.865,21.215-3.573,34.777-3.026
			c19.712,0.796,29.568,1.194,37.045,7.564c9.586,8.167,11.485,20.299,12.096,24.206c0.762,4.867,2.231,14.251-3.024,22.693
			c-2.918,4.688-6.678,7.106-12.096,10.59c-1.584,1.019-5.134,3.2-18.901,8.321c-16.995,6.321-19.424,5.913-21.169,5.295
			c-5.883-2.083-8.587-8.172-11.34-14.372c-5.336-12.017-3.452-22.75-3.024-24.962c1.193-6.168,3.58-10.812,5.292-13.616"/>
		<path style="fill:none;stroke:#1E1E1E;stroke-width:4;stroke-miterlimit:10;" d="M404.464,605.95
			c-3.817,3.403-12.317,12.009-14.364,25.341c-0.634,4.13-2.832,18.438,5.67,24.962c5.513,4.231,12.905,3.178,16.632,2.648
			c8.28-1.179,13.883-5.493,16.255-7.564"/>
		<path style="fill:none;stroke:#1E1E1E;stroke-width:4;stroke-miterlimit:10;" d="M380.65,627.131
			c-0.195,0.702-2.958,11.273,3.78,18.154c2.454,2.507,5.294,3.631,7.182,4.16"/>
		<path style="fill:none;stroke:#1E1E1E;stroke-width:4;stroke-miterlimit:10;" d="M532.232,329.851
			c10.743,5.075,26.508,14.058,41.581,29.501c22.931,23.494,31.336,48.697,38.557,70.349c5.676,17.02,13.494,40.461,12.096,71.105
			c-1.3,28.516-10.176,54.4-7.56,55.22c2.469,0.774,7.603-23.16,20.413-24.962c7.695-1.083,14.523,6.333,21.925,14.372
			c7.154,7.77,19.79,21.495,18.901,40.848c-0.164,3.576-0.738,16.055-9.828,24.962c-1.606,1.574-4.377,3.917-19.657,9.077
			c-20.126,6.797-30.416,10.143-41.581,7.564c-6.797-1.57-11.924-4.579-15.12-6.808"/>
		<path style="fill:none;stroke:#1E1E1E;stroke-width:4;stroke-miterlimit:10;" d="M638.831,574.18
			c2.787,3.041,9.697,11.405,11.34,24.206c1.178,9.176-0.875,16.549-2.268,20.424"/>
		<path style="fill:none;stroke:#1E1E1E;stroke-width:4;stroke-miterlimit:10;" d="M529.444,472.924
			c-0.198,5.312-0.053,13.671,2.268,23.45c4.908,20.68,13.54,22.411,22.681,46.143c7.109,18.456,5.056,25.631,14.364,34.796
			c6.788,6.683,9.957,4.912,15.877,12.103c7.415,9.007,12.529,24.035,7.56,34.796c-2.006,4.346-7.534,12.062-7.56,12.103l0,0"/>
		<path style="fill:none;stroke:#1E1E1E;stroke-width:4;stroke-miterlimit:10;" d="M548.109,602.546
			c1.766,3.591,5.158,11.841,3.402,21.937c-0.617,3.546-1.664,9.568-6.804,14.75c-1.057,1.066-6.25,6.092-14.364,6.808
			c-7.9,0.697-13.769-3.117-18.145-6.052c-9.556-6.409-14.875-15.224-18.145-22.315c-7.386-16.021-7.31-29.752-7.938-42.36
			c-0.726-14.584-2.768-35.168-8.694-60.515"/>
		<path style="fill:none;stroke:#1E1E1E;stroke-width:4;stroke-miterlimit:10;" d="M575.326,608.598
			c6.063,10.844,5.727,23.206-0.756,31.014c-0.827,0.996-8.551,10.002-18.901,7.943c-6.081-1.21-9.741-5.578-10.962-7.186"/>
		<path style="fill:none;stroke:#1E1E1E;stroke-width:4;stroke-miterlimit:10;" d="M583.843,637.13
			c-3.402,0.63-5.493,0.339-8.895,0.969"/>
		
			<line style="fill:none;stroke:#1E1E1E;stroke-width:4;stroke-miterlimit:10;" x1="234.926" y1="646.042" x2="279.343" y2="646.042"/>
		<path style="fill:none;stroke:#1E1E1E;stroke-width:4;stroke-miterlimit:10;" d="M495.645,618.637
			c1.072-4.106,6.54-23.243,26-35.333c20.279-12.599,40.774-8.24,44.667-7.333"/>
		<path style="fill:none;stroke:#1E1E1E;stroke-width:4;stroke-miterlimit:10;" d="M317.072,106.189
			c2.469,1.509,16.083-18.254,45.025-26.554c17.296-4.96,33.879-4.052,46.371-2.058c2.255-1.73,0.714-2.047-1.299-3.461
			c-6.084-4.272-25.806-7.703-51.951-0.001C327.444,82.3,314.47,104.599,317.072,106.189z"/>
		<path style="fill:none;stroke:#1E1E1E;stroke-width:4;stroke-miterlimit:10;" d="M499.289,68.096
			c2.358,2.254,7.499-14.19,27.054-16.389c19.355-2.177,30.112,4.793,37.948-2.302c2.541-2.301,1.786-4.102-1.012-5.881
			c-9.011-5.73-23.805-7.867-45.446,0.334C500.349,50.483,496.923,65.834,499.289,68.096z"/>
		<path style="fill:none;stroke:#1E1E1E;stroke-width:4;stroke-miterlimit:10;" d="M305.479,118.304
			c-7.885-7.336-18.149-15.661-31-23.5c-10.47-6.387-20.374-11.058-29-14.5"/>
		<path style="fill:none;stroke:#1E1E1E;stroke-width:4;stroke-miterlimit:10;" d="M287.979,120.804
			c-12.46-6.225-29.863-13.308-51.5-17.5c-17.873-3.463-33.637-3.986-46-3.5"/>
		<path style="fill:none;stroke:#1E1E1E;stroke-width:4;stroke-miterlimit:10;" d="M299.479,159.804
			c-7.984,7.1,9.674,38.829,14.5,47.5c11.209,20.141,28.307,50.863,65.5,70.5c25.608,13.52,48.523,15.334,65.5,16.5
			c17.152,1.178,68.473,3.963,116.5-29c11.206-7.691,26.873-18.874,36-42c17.908-45.375,16.702-92.942,13-104.5
			c-2.971-2.898-7.357-6.213-12-5.5c-5.031,0.773-6.968,5.754-13,11.5c-4.898,4.665-9.293,6.784-17,10.5
			c-16.384,7.899-33.897,6.561-57.5,4.5c-7.402-0.646-18.114-1.885-31-4.5c-4.829,2.84-11.829,6.773-20.5,11
			c-6.511,3.174-23.891,11.354-56,21c-21.683,6.514-32.524,9.771-38,10C328.9,178.835,307.272,152.873,299.479,159.804z"/>
		<path style="fill:none;stroke:#1E1E1E;stroke-width:4;stroke-miterlimit:10;" d="M320.312,189.637l31.918,31.304
			c1.395,1.368,3.705,1.059,4.691-0.628l15.391-26.342"/>
		<path style="fill:none;stroke:#1E1E1E;stroke-width:4;stroke-miterlimit:10;" d="M423.312,201.838l22.71,30.454
			c1.546,2.074,4.817,1.349,5.342-1.184l5.615-27.046l20.279,19.92c1.651,1.621,4.438,0.843,5.009-1.399l3.045-11.946l9.533,9.533
			c1.585,1.585,4.286,0.935,4.976-1.198l4.824-14.911l11.74,29.01c1.031,2.547,4.658,2.484,5.599-0.098l16.327-44.78"/>
		<path style="fill:none;stroke:#1E1E1E;stroke-width:4;stroke-miterlimit:10;" d="M612.244,141.883l-7.846,31.408
			c-0.647,2.591-4.103,3.108-5.481,0.82l-6.271-10.418l-2.548,9.069c-0.744,2.649-4.364,2.982-5.58,0.514l-3.873-7.865"/>
		<path style="fill:none;stroke:#1E1E1E;stroke-width:4;stroke-miterlimit:10;" d="M571.312,149.971
			c5.215,12.061,5.439,23.171,6.417,30.333c1.745,12.779,0.5,33.945-7.75,52.667c-1.658,3.762-5.724,4.865-7.667,6
			c-2.019-2.449-3.555-7.276-6.519-12.542c-6.43-11.425-8.678-18.553-12.481-29.458c-2.187-6.273-6.007-15.306-13-25.667"/>
		<path style="fill:none;stroke:#1E1E1E;stroke-width:4;stroke-miterlimit:10;" d="M431.312,188.637
			c-5.08,7.766-8.695,21.736-12.667,38.667c-3.906,16.655-6.713,29.512-5.667,38.667c-6.379-0.895-11.854-2.131-15-5
			c-22.667-20.667-25.869-63.066-25.667-65.667"/>
		<path style="fill:none;stroke:#1E1E1E;stroke-width:3;stroke-miterlimit:10;" d="M622.312,249.971
			c24.24,11.883,42.496,21.465,54.667,28c13.944,7.487,27.302,14.949,41.333,10.667c2.7-0.824,8.793-2.775,11.333-8
			c4.976-10.235-7.328-25.529-11.333-30.667c-16.747-21.483-47.769-69.857-92-142"/>
		<path style="fill:none;stroke:#1E1E1E;stroke-width:4;stroke-miterlimit:10;" d="M632.312,234.637
			c18.225,20.391,36.007,27.289,46.667,30c8.382,2.132,24.517,4.767,26.667,0c1.697-3.764-6.002-10.643-12-16
			c-17.201-15.365-27.661-15.888-39.333-27.333c-4.638-4.548-10.821-12.148-15.333-24.667"/>
		<path style="fill:none;stroke:#1E1E1E;stroke-width:4;stroke-miterlimit:10;" d="M225.479,581.804
			c-24.179-12.198-44.583-21.326-59-27.5c-31.811-13.624-68.984-27.649-114.5-34c-30.834-4.302-40.402-1.581-45.5,4.5
			c-9.842,11.74-1.218,33.844,4.5,48.5c4.621,11.845,15.208,37.953,42.5,57.5c26.91,19.274,54.19,20.802,84.5,22.5
			c19.776,1.108,50.241,0.478,86.5-10"/>
		<g>
			<g>
				<path style="fill:#1E1E1E;" d="M66.544,524.769c12.396,7.839,24.792,15.679,37.187,23.518c1.526,0.965,3.909-0.273,3.762-2.159
					c-0.512-6.575-2.723-12.17-6.751-17.38c-1.179,1.179-2.357,2.357-3.536,3.536c11.233,9.837,22.466,19.674,33.699,29.51
					c2.084,1.825,5.378-0.465,3.926-3.03c-3.421-6.043-4.819-12.429-4.354-19.344c-1.553,0.421-3.106,0.841-4.659,1.262
					c9.56,12.52,19.987,24.279,31.336,35.206c1.629,1.568,4.126,0.366,4.268-1.768c0.619-9.334-2.027-18.294-7.68-25.755
					c-1.309,1.01-2.618,2.02-3.926,3.03c10.12,12.224,22.497,22.209,36.57,29.539c1.905,0.992,4.257-0.648,3.673-2.823
					c-2.239-8.335-7.187-15.12-14.352-19.908c-2.683-1.793-5.189,2.536-2.524,4.317c6.088,4.068,10.159,9.861,12.054,16.92
					c1.224-0.941,2.448-1.882,3.673-2.823c-13.731-7.152-25.685-16.833-35.558-28.758c-1.789-2.161-5.646,0.761-3.926,3.03
					c5.183,6.841,7.566,14.652,6.998,23.232c1.423-0.589,2.845-1.179,4.268-1.768c-11.033-10.622-21.259-22.021-30.555-34.194
					c-1.487-1.948-4.482-1.363-4.659,1.262c-0.522,7.776,1.202,15.093,5.037,21.868c1.309-1.01,2.618-2.02,3.926-3.03
					c-11.233-9.837-22.466-19.674-33.699-29.511c-2.481-2.173-5.469,1.034-3.536,3.536c3.144,4.066,4.888,8.736,5.286,13.845
					c1.254-0.72,2.508-1.439,3.762-2.159c-12.396-7.839-24.792-15.679-37.187-23.518C66.34,518.727,63.828,523.052,66.544,524.769
					L66.544,524.769z"/>
			</g>
		</g>
		<g>
			<g>
				<path style="fill:#1E1E1E;" d="M51.479,625.811c19.492-0.172,38.98,0.14,58.457,0.938c-0.804-1.055-1.607-2.11-2.411-3.165
					c-0.421,2.372-4.732,3.29-6.567,4.125c-2.694,1.226-5.388,2.452-8.083,3.678c-5.388,2.452-10.777,4.904-16.165,7.355
					c-2.447,1.113-0.968,4.508,1.262,4.659c15.741,1.061,31.426-0.167,46.824-3.586c-0.811-1.393-1.622-2.786-2.432-4.178
					c-4.023,5.026-8.656,9.189-14.138,12.581c-2.516,1.556-0.797,5.042,1.926,4.569c13.831-2.399,27.663-4.798,41.494-7.197
					c-0.642-1.523-1.284-3.046-1.926-4.569c-5.144,3.123-9.604,6.948-13.42,11.609c-1.568,1.916-0.124,4.727,2.432,4.178
					c13.816-2.966,27.106-7.686,40.369-12.487c-0.811-1.393-1.622-2.786-2.432-4.178c-3.473,3.706-6.947,7.411-10.42,11.117
					c-1.564,1.669-0.037,5.156,2.432,4.178c12.042-4.768,24.084-9.536,36.126-14.304c-0.941-1.224-1.882-2.448-2.823-3.672
					c-3.14,4.26-5.742,8.758-7.869,13.602c-0.956,2.178,1.07,4.748,3.42,3.42c7.336-4.143,14.428-8.648,21.296-13.526
					c-1.254-0.72-2.508-1.439-3.762-2.159c-0.288,0.74-0.576,1.481-0.864,2.221c-2.439,2.108,1.111,5.631,3.536,3.536
					c1.817-1.571,2.561-3.359,2.328-5.757c-0.165-1.695-2.064-3.364-3.762-2.159c-6.869,4.878-13.961,9.383-21.296,13.526
					c1.14,1.14,2.28,2.28,3.42,3.42c2.128-4.846,4.73-9.343,7.869-13.602c1.248-1.693-0.848-4.454-2.823-3.672
					c-12.042,4.768-24.084,9.536-36.126,14.304c0.811,1.393,1.622,2.786,2.432,4.178c3.473-3.706,6.947-7.411,10.42-11.117
					c1.593-1.699,0.044-5.075-2.432-4.178c-13.263,4.801-26.553,9.521-40.369,12.487c0.811,1.393,1.622,2.786,2.432,4.178
					c3.551-4.337,7.61-7.914,12.408-10.827c2.536-1.54,0.784-5.039-1.926-4.569c-13.831,2.399-27.663,4.798-41.494,7.197
					c0.642,1.523,1.284,3.046,1.926,4.569c5.823-3.603,10.867-8.013,15.15-13.362c1.53-1.911,0.149-4.752-2.432-4.178
					c-14.98,3.327-30.189,4.439-45.495,3.408c0.421,1.553,0.841,3.106,1.262,4.659c6.885-3.133,13.77-6.266,20.656-9.399
					c4.14-1.884,11.528-3.508,12.457-8.747c0.289-1.632-0.676-3.094-2.411-3.165c-19.476-0.798-38.965-1.111-58.457-0.938
					C48.263,620.839,48.255,625.839,51.479,625.811L51.479,625.811z"/>
			</g>
		</g>
		<g>
			<g>
				<path style="fill:#1E1E1E;" d="M10.479,524.91c5.749,0.119,10.937,1.892,15.636,5.192c2.639,1.853,5.14-2.48,2.524-4.317
					c-5.385-3.781-11.59-5.739-18.159-5.875C7.26,519.844,7.26,524.844,10.479,524.91L10.479,524.91z"/>
			</g>
		</g>
		<g>
			<g>
				<path style="fill:#1E1E1E;" d="M42.613,519.669c4.459,4.422,9.37,8.318,14.681,11.67c2.729,1.722,5.241-2.603,2.524-4.317
					c-4.961-3.131-9.504-6.758-13.669-10.888C43.862,513.865,40.324,517.399,42.613,519.669L42.613,519.669z"/>
			</g>
		</g>
		<path style="fill:none;stroke:#1E1E1E;stroke-width:3;stroke-miterlimit:10;" d="M594.979,67.304
			c9.245-12.993,22.524-28.813,41-44c11.263-9.258,22.218-16.44,32-22"/>
		<path style="fill:none;stroke:#1E1E1E;stroke-width:3;stroke-miterlimit:10;" d="M595.979,85.304
			c10.902-10.158,25.785-22.122,45-33c15.797-8.943,30.594-14.928,43-19"/>
		<path style="fill:none;stroke:#1E1E1E;stroke-width:3;stroke-miterlimit:10;" d="M611.979,90.304c14.309-2.084,34.024-3.365,57,0
			c16.765,2.455,30.924,6.748,42,11"/>
	</g>
</g>
<g id="Layer_1">
</g>
</svg>
