<?xml version="1.0" encoding="iso-8859-1"?>
<!-- Generator: Adobe Illustrator 18.1.1, SVG Export Plug-In . SVG Version: 6.00 Build 0)  -->
<svg version="1.1" xmlns="http://www.w3.org/2000/svg" xmlns:xlink="http://www.w3.org/1999/xlink" x="0px" y="0px"
	 viewBox="0 0 660.072 688.314" style="enable-background:new 0 0 660.072 688.314;" xml:space="preserve">
<g id="Layer_5">
	<g>
		<g>
			<path style="fill:none;stroke:#1E1E1E;stroke-width:4;stroke-miterlimit:10;" d="M209.273,197.329
				c25.049-91.895,82.535-162.452,186.92-162.452s191.091,67.201,191.091,162.452s-84.621,172.467-189.006,172.467
				c-71.612,0-144.842-28.121-176.909-81.695C206.694,263.583,200.201,230.613,209.273,197.329z"/>
			<path style="fill:none;stroke:#1E1E1E;stroke-width:4;stroke-miterlimit:10;" d="M582.659,160.209
				c0,0,37.608-32.114,55.052-68.832c10.323-21.728,24.459-66.811,9.364-85.535c-1.409-1.748-3.169-2.708-5.27-3.5
				c-2.792-1.053-5.724,0.661-5.724,0.661c-6.436,2.753-17.216,11.771-18.311,12.294c-30.485,14.58-112.892,47.19-112.892,47.19"/>
			<path style="fill:none;stroke:#1E1E1E;stroke-width:4;stroke-miterlimit:10;" d="M558.429,109.386
				c0,0,66.607-77.138,76.44-86.138c0.653-0.598,5.217,7.914,1.217,39.414c-2.789,21.964-48.781,64.087-56.77,79.716"/>
			<path style="fill:none;stroke:#1E1E1E;stroke-width:4;stroke-miterlimit:10;" d="M206.518,246.646
				c-5.021-2.582-34.688,6.898-68.021-33.436C108.932,177.437,78.921,79.45,104.522,88.905
				c84.432,31.182,136.499,32.73,136.499,32.73"/>
			<path style="fill:none;stroke:#1E1E1E;stroke-width:4;stroke-miterlimit:10;" d="M262.931,88.905"/>
			<path style="fill:none;stroke:#1E1E1E;stroke-width:4;stroke-miterlimit:10;" d="M212.866,185.017
				c0.098-2.498-73.823-46.387-87.584-64.81c-0.735-0.984-12.454-10.171-12.826-9c-3.37,10.61-5.292,19.67,8.708,51.004
				c20.087,44.956,64.031,62.658,83.961,64.327"/>
			
				<ellipse transform="matrix(-0.8123 0.5832 -0.5832 -0.8123 649.2209 56.2639)" style="stroke:#1E1E1E;stroke-width:4;stroke-miterlimit:10;" cx="315.558" cy="132.592" rx="17.687" ry="23.199"/>
			<path style="fill:none;stroke:#1E1E1E;stroke-width:4;stroke-miterlimit:10;" d="M260.004,156.769
				c0-28.826,13.527-52.194,42.337-52.194c28.81,0,47.466,9.38,47.466,38.206s-21.143,5.096-46.143,23.346
				C280.394,183.114,260.004,185.595,260.004,156.769z"/>
			<path style="fill:none;stroke:#1E1E1E;stroke-width:4;stroke-miterlimit:10;" d="M464.164,123.627
				c1.027-25.755-0.269-42.018,18.013-47.768c18.283-5.75,42.094,14.893,51.237,40.018c9.368,25.744-13.838,10.5-32.121,16.25
				C483.011,137.877,463.098,150.343,464.164,123.627z"/>
			<path style="fill:none;stroke:#1E1E1E;stroke-width:4;stroke-miterlimit:10;" d="M387.934,215.771l9.963,17.045
				c1.839,3.146,6.316,3.331,8.409,0.349l8.857-12.621l4.531,10.331c1.614,3.68,6.689,4.049,8.819,0.642l8.316-13.306l4.734,7.94
				c1.909,3.202,6.775,2.282,7.382-1.396l1.484-8.984l13.986,11.233c1.441,1.157,3.575,0.749,4.487-0.857l12.26-21.588
				l10.358,28.473c0.975,2.68,4.788,2.616,5.672-0.096l9.97-30.599l7.597,5.543c1.455,1.062,3.51,0.611,4.388-0.961l6.349-11.375
				l13.333,6.793l19.599-25.485"/>
			<path style="fill:none;stroke:#1E1E1E;stroke-width:4;stroke-miterlimit:10;" d="M387.934,215.771l-12.267,36.619
				c-0.699,2.086-3.331,2.735-4.92,1.213l-20.94-20.06v7.866c0,2.217-2.322,3.668-4.315,2.697l-21.662-10.563l1.667,13.667
				l-25.583-17.241"/>
			
				<line style="fill:none;stroke:#1E1E1E;stroke-width:4;stroke-miterlimit:10;" x1="261.831" y1="221.211" x2="280.164" y2="211.544"/>
			
				<line style="fill:none;stroke:#1E1E1E;stroke-width:4;stroke-miterlimit:10;" x1="558.429" y1="167.456" x2="571.164" y2="176.852"/>
			
				<ellipse transform="matrix(-0.867 0.4983 -0.4983 -0.867 986.7939 -59.1737)" style="fill:#020202;stroke:#1E1E1E;stroke-width:4;stroke-miterlimit:10;" cx="501.293" cy="102.091" rx="16.118" ry="20.104"/>
			
				<ellipse transform="matrix(-0.8123 0.5832 -0.5832 -0.8123 640.9299 42.5034)" style="fill:#FFFFFF;stroke:#1E1E1E;stroke-width:4;stroke-miterlimit:10;" cx="313.626" cy="124.377" rx="8.316" ry="9.455"/>
			
				<ellipse transform="matrix(-0.867 0.4983 -0.4983 -0.867 979.7235 -74.7983)" style="fill:#FFFFFF;stroke:#1E1E1E;stroke-width:4;stroke-miterlimit:10;" cx="499.843" cy="93.335" rx="7.054" ry="7.815"/>
			<path style="fill:none;stroke:#1E1E1E;stroke-width:4;stroke-miterlimit:10;" d="M388.641,145.327l60.882-12.159
				c0.725-0.145,1.205,0.73,0.695,1.264l-23.105,24.21l-38.719-7.226C387.644,151.186,387.872,145.481,388.641,145.327z"/>
			<path style="fill:none;stroke:#1E1E1E;stroke-width:4;stroke-miterlimit:10;" d="M496.692,227.411"/>
			
				<line style="fill:none;stroke:#1E1E1E;stroke-width:4;stroke-miterlimit:10;" x1="255.898" y1="274.647" x2="204.854" y2="361.637"/>
			
				<line style="fill:none;stroke:#1E1E1E;stroke-width:4;stroke-miterlimit:10;" x1="250.339" y1="260.267" x2="159.37" y2="317.756"/>
			<path style="fill:none;stroke:#1E1E1E;stroke-width:4;stroke-miterlimit:10;" d="M241.02,250.425
				c-11.782,1.072-28.622,3.973-47.251,12.103c-14.831,6.473-26.269,14.284-34.399,20.802"/>
			<path style="fill:none;stroke:#1E1E1E;stroke-width:4;stroke-miterlimit:10;" d="M560.365,165.729
				c12.851,3.868,28.034,9.339,44.171,17.146c15.026,7.269,27.347,14.856,37.129,21.684"/>
			<path style="fill:none;stroke:#1E1E1E;stroke-width:4;stroke-miterlimit:10;" d="M552.508,156.159
				c13.009-3.514,30.041-6.058,49.849-3.637c20.932,2.559,38.37,9.857,51.315,16.974"/>
			
				<line style="fill:none;stroke:#1E1E1E;stroke-width:4;stroke-miterlimit:10;" x1="554.977" y1="146.176" x2="659.664" y2="124.377"/>
			<path style="fill:none;stroke:#1E1E1E;stroke-width:4;stroke-miterlimit:10;" d="M289.664,346.599
				c-16.65,17.548-40.154,46.874-56.45,88.755c-25.591,65.773-18.536,124.301-13.608,150.783"/>
			<path style="fill:none;stroke:#1E1E1E;stroke-width:4;stroke-miterlimit:10;" d="M241.404,610.344
				c-0.639-2.088-5.862-18.221-21.547-23.828c-16.871-6.031-31.79,5.14-35.533,7.943c-15.38,11.515-17.909,29.086-19.657,41.226
				c-1.398,9.713-3.513,24.401,5.292,31.77c3.927,3.286,8.738,4.04,12.096,4.16"/>
			<path style="fill:none;stroke:#1E1E1E;stroke-width:4;stroke-miterlimit:10;" d="M175.252,628.876
				c-1.241,4.685-2.364,11.796-0.756,20.046c1.057,5.422,2.608,13.381,9.45,18.533c3.051,2.297,6.178,3.301,8.316,3.782"/>
			<path style="fill:none;stroke:#1E1E1E;stroke-width:4;stroke-miterlimit:10;" d="M207.761,618.286
				c-2.356,1.491-8.472,5.832-10.584,13.616c-2.092,7.708,0.953,14.335,3.402,19.667c2.995,6.519,6.919,10.414,8.316,11.725
				c1.948,1.827,4.805,4.507,9.072,6.052c5.538,2.004,10.945,1.838,14.553,1.702c7.655-0.288,11.879-0.576,15.309-0.514
				c5.395,0.097,8.565-0.15,16.128-2.196c9.475-2.564,11.737-0.072,25.705-6.051c10.067-4.31,31.328-8.102,37.171-9.582"/>
			<path style="fill:none;stroke:#1E1E1E;stroke-width:4;stroke-miterlimit:10;" d="M165.593,639.788"/>
			<path style="fill:none;stroke:#1E1E1E;stroke-width:4;stroke-miterlimit:10;" d="M159.017,559.257"/>
			<path style="fill:none;stroke:#1E1E1E;stroke-width:4;stroke-miterlimit:10;" d="M182.981,595.914"/>
			<path style="fill:none;stroke:#1E1E1E;stroke-width:4;stroke-miterlimit:10;" d="M349.894,510.494
				c4.52,8.945,11.179,25.037,12.096,46.143c1.111,25.558-6.781,45.07-11.34,54.463"/>
			<path style="fill:none;stroke:#1E1E1E;stroke-width:4;stroke-miterlimit:10;" d="M327.213,653.46
				c-0.642-3.618-3.006-19.181,6.804-31.014c5.885-7.098,13.426-9.568,21.169-12.103c11.802-3.865,21.215-3.573,34.777-3.026
				c19.712,0.796,29.568,1.194,37.045,7.564c9.586,8.167,11.485,20.299,12.096,24.206c0.762,4.867,2.231,14.251-3.024,22.693
				c-2.918,4.688-6.678,7.106-12.096,10.59c-1.584,1.019-5.134,3.2-18.901,8.321c-16.995,6.321-19.424,5.913-21.169,5.295
				c-5.883-2.083-8.587-8.172-11.34-14.372c-5.336-12.017-3.452-22.75-3.024-24.962c1.193-6.168,3.58-10.812,5.292-13.616"/>
			<path style="fill:none;stroke:#1E1E1E;stroke-width:4;stroke-miterlimit:10;" d="M350.65,631.524
				c-3.817,3.403-12.317,12.009-14.364,25.341c-0.634,4.13-2.832,18.438,5.67,24.962c5.513,4.231,12.905,3.178,16.633,2.648
				c8.28-1.179,13.883-5.493,16.255-7.564"/>
			<path style="fill:none;stroke:#1E1E1E;stroke-width:4;stroke-miterlimit:10;" d="M326.835,652.704
				c-0.195,0.702-2.958,11.273,3.78,18.154c2.454,2.507,5.294,3.631,7.182,4.16"/>
			<path style="fill:none;stroke:#1E1E1E;stroke-width:4;stroke-miterlimit:10;" d="M478.418,355.425
				c10.743,5.075,26.508,14.058,41.581,29.501c22.931,23.494,31.336,48.697,38.557,70.349c5.676,17.02,13.494,40.461,12.096,71.105
				c-1.3,28.516-10.176,54.4-7.56,55.22c2.469,0.774,7.603-23.16,20.413-24.962c7.695-1.083,14.523,6.333,21.925,14.372
				c7.154,7.77,19.79,21.495,18.901,40.848c-0.164,3.576-0.738,16.055-9.828,24.962c-1.606,1.574-4.377,3.917-19.657,9.077
				c-20.126,6.797-30.416,10.143-41.581,7.564c-6.797-1.57-11.924-4.579-15.12-6.808"/>
			<path style="fill:none;stroke:#1E1E1E;stroke-width:4;stroke-miterlimit:10;" d="M585.017,599.753
				c2.787,3.041,9.697,11.405,11.34,24.206c1.178,9.176-0.875,16.549-2.268,20.424"/>
			<path style="fill:none;stroke:#1E1E1E;stroke-width:4;stroke-miterlimit:10;" d="M475.63,498.497
				c-0.198,5.312-0.053,13.671,2.268,23.45c4.908,20.68,13.54,22.411,22.681,46.143c7.109,18.456,5.055,25.631,14.364,34.796
				c6.788,6.683,9.957,4.912,15.877,12.103c7.415,9.007,12.529,24.035,7.56,34.796c-2.006,4.346-7.534,12.062-7.56,12.103l0,0"/>
			<path style="fill:none;stroke:#1E1E1E;stroke-width:4;stroke-miterlimit:10;" d="M494.294,628.12
				c1.766,3.591,5.158,11.841,3.402,21.937c-0.617,3.546-1.664,9.568-6.804,14.75c-1.057,1.066-6.25,6.092-14.364,6.808
				c-7.9,0.697-13.769-3.117-18.145-6.052c-9.556-6.409-14.875-15.224-18.145-22.315c-7.386-16.021-7.31-29.752-7.938-42.36
				c-0.726-14.584-2.768-35.168-8.694-60.515"/>
			<path style="fill:none;stroke:#1E1E1E;stroke-width:4;stroke-miterlimit:10;" d="M521.511,634.171
				c6.063,10.844,5.727,23.206-0.756,31.014c-0.827,0.996-8.551,10.002-18.901,7.943c-6.081-1.21-9.741-5.578-10.962-7.186"/>
			<path style="fill:none;stroke:#1E1E1E;stroke-width:4;stroke-miterlimit:10;" d="M530.028,662.703
				c-3.402,0.63-5.493,0.339-8.895,0.969"/>
			
				<line style="fill:none;stroke:#1E1E1E;stroke-width:4;stroke-miterlimit:10;" x1="181.112" y1="671.615" x2="225.528" y2="671.615"/>
			<path style="fill:none;stroke:#1E1E1E;stroke-width:4;stroke-miterlimit:10;" d="M441.831,644.211
				c1.072-4.106,6.54-23.243,26-35.333c20.279-12.599,40.774-8.24,44.667-7.333"/>
		</g>
		<path style="fill:none;stroke:#1E1E1E;stroke-width:6;stroke-miterlimit:10;" d="M271.439,217.608
			c13.023,5.937,32.559,18.677,55.575,13.7c52.171-11.282,95.317-26.212,107.807-36.083c12.888,3.79,39.242,9.657,71.518,3.113
			c29.298-5.94,49.837-19.341,60.353-27.327c-5.945,13.257-17.238,33.365-38.232,49.707c-20.932,16.295-42.188,20.736-83.845,28.954
			c-48.258,9.52-72.387,14.28-99.958,8.04C311.685,250.252,287.301,232.507,271.439,217.608z"/>
		<path style="fill:none;stroke:#1E1E1E;stroke-width:4;stroke-miterlimit:10;" d="M169.831,612.211
			c-4.636,1.156-43.238,10.181-69.333-12.667c-27.606-24.17-32.471-66.309-1.333-107.333c1.246-1.641,7-6.667,5.667-14.667
			c-0.657-3.939-9.361-8.774-13.667-8.667c-23.356,0.582-69.172,22.21-84,64c-15.583,43.919,8.903,84.511,10.667,87.333
			c27.515,44.033,90.131,64.297,155.333,48"/>
		<path style="fill:none;stroke:#1E1E1E;stroke-width:4;stroke-miterlimit:10;" d="M99.164,480.877"/>
		<g>
			<g>
				<path style="fill:#1E1E1E;" d="M11.405,614.524c10.475,7.59,23.334,10.854,36.157,9.132c-0.589-1.423-1.179-2.845-1.768-4.268
					c-3.231,3.965-4.819,8.392-5.249,13.482c-0.41,4.85-0.668,12.681,1.708,17.097c2.49,4.629,7.305,2.996,11.012,0.993
					c7.263-3.925,14.417-8.067,21.621-12.099c-1.14-1.14-2.28-2.28-3.42-3.42c-6.477,8.638-8.736,19.221-6.772,29.79
					c0.235,1.262,1.882,2.171,3.075,1.746c13.733-4.894,27.28-10.266,40.646-16.088c-0.841-1.439-1.682-2.878-2.524-4.317
					c-9.108,5.057-15.511,13.457-17.954,23.589c-0.353,1.463,0.728,3.301,2.411,3.165c7.046-0.572,11.732-6.87,17.256-10.622
					c6.904-4.69,14.45-8.059,22.491-10.267c-1.025-1.025-2.05-2.05-3.075-3.075c-1.339,7.601-2.677,15.202-4.016,22.803
					c-0.317,1.801,1.106,3.648,3.075,3.075c8.303-2.413,16.023-6.075,23.111-11.031c2.618-1.831,0.122-6.167-2.524-4.317
					c-6.755,4.724-13.994,8.225-21.917,10.527c1.025,1.025,2.05,2.05,3.075,3.075c1.339-7.601,2.677-15.202,4.016-22.803
					c0.321-1.823-1.105-3.616-3.075-3.075c-6.83,1.875-13.401,4.542-19.516,8.134c-2.787,1.637-5.455,3.453-8.014,5.426
					c-3.234,2.493-6.602,6.801-10.888,7.149c0.804,1.055,1.607,2.11,2.411,3.165c2.155-8.94,7.611-16.134,15.656-20.6
					c2.882-1.6,0.35-5.569-2.524-4.317c-12.97,5.649-26.126,10.836-39.451,15.584c1.025,0.582,2.05,1.164,3.075,1.746
					c-1.73-9.312,0.615-18.399,6.268-25.937c1.584-2.112-1.409-4.546-3.42-3.42c-4.036,2.258-8.072,4.517-12.108,6.775
					c-2.306,1.291-4.613,2.581-6.919,3.872c-1.153,0.645-2.306,1.291-3.459,1.936c-2.479,1.013-3.681,0.59-3.606-1.269
					c-1.302-2.735-0.903-7.809-0.833-10.784c0.105-4.428,1.042-8.651,3.892-12.15c1.167-1.433,0.628-4.589-1.768-4.268
					c-12.073,1.621-23.765-1.299-33.634-8.449C11.319,608.316,8.821,612.652,11.405,614.524L11.405,614.524z"/>
			</g>
		</g>
		<g>
			<g>
				<path style="fill:#1E1E1E;" d="M10.159,521.758c-1.728,12.525,1.301,25.026,3.395,37.337c0.538,3.166,5.358,1.823,4.821-1.329
					c-1.928-11.337-4.988-23.132-3.395-34.678C15.414,519.941,10.597,518.58,10.159,521.758L10.159,521.758z"/>
			</g>
		</g>
		<g>
			<g>
				<path style="fill:#1E1E1E;" d="M55.079,479.11c-9.596,8.441-16.674,18.982-21.03,30.983c-1.1,3.03,3.73,4.335,4.821,1.329
					c4.064-11.198,10.808-20.916,19.744-28.777C61.035,480.516,57.488,476.991,55.079,479.11L55.079,479.11z"/>
			</g>
		</g>
		<g>
			<g>
				<path style="fill:#1E1E1E;" d="M85.595,468.392c-9.127,4.875-18.111,10.069-23.975,18.867c-1.79,2.685,2.539,5.191,4.317,2.524
					c5.343-8.016,13.892-12.646,22.181-17.073C90.958,471.192,88.436,466.875,85.595,468.392L85.595,468.392z"/>
			</g>
		</g>
		<g>
			<g>
				<path style="fill:#1E1E1E;" d="M99.787,472.034c-7.49,4.683-14.98,9.366-22.47,14.048c-2.722,1.702-0.215,6.03,2.524,4.317
					c7.49-4.683,14.98-9.366,22.47-14.048C105.032,474.649,102.525,470.321,99.787,472.034L99.787,472.034z"/>
			</g>
		</g>
	</g>
</g>
<g id="Layer_1">
</g>
</svg>
