<?xml version="1.0" encoding="iso-8859-1"?>
<!-- Generator: Adobe Illustrator 18.1.1, SVG Export Plug-In . SVG Version: 6.00 Build 0)  -->
<svg version="1.1" xmlns="http://www.w3.org/2000/svg" xmlns:xlink="http://www.w3.org/1999/xlink" x="0px" y="0px"
	 viewBox="0 0 706.144 662.74" style="enable-background:new 0 0 706.144 662.74;" xml:space="preserve">
<g id="Layer_8">
	<g>
		<path style="fill:none;stroke:#1E1E1E;stroke-width:3;stroke-miterlimit:10;" d="M236.92,171.756
			C261.968,79.861,319.455,9.304,423.84,9.304s191.091,67.201,191.091,162.452S530.31,344.224,425.926,344.224
			c-71.612,0-144.842-28.121-176.909-81.695C234.341,238.01,227.847,205.039,236.92,171.756z"/>
		<path style="fill:none;stroke:#1E1E1E;stroke-width:4;stroke-miterlimit:10;" d="M262.352,280.804
			c-5.507,1.243-17.542,15.466-64.542,20.5c-46.146,4.942-50.981-1.719-44.384-28.201c18.884-75.8,95.384-139.8,95.384-139.8"/>
		<path style="fill:none;stroke:#1E1E1E;stroke-width:4;stroke-miterlimit:10;" d="M290.577,63.331"/>
		<path style="fill:none;stroke:#1E1E1E;stroke-width:4;stroke-miterlimit:10;" d="M232.749,227.804
			c0.098-2.498-4.245,9.348-26.048,23c-1.041,0.652-26.985,14.771-26.985,16c0,4-7.028,16.571,26.985,12
			c34.228-4.6,30.423-9.57,42.315-16.276"/>
		
			<line style="fill:none;stroke:#1E1E1E;stroke-width:4;stroke-miterlimit:10;" x1="259.884" y1="165.411" x2="278.217" y2="155.744"/>
		<path style="fill:none;stroke:#1E1E1E;stroke-width:4;stroke-miterlimit:10;" d="M598.81,151.279"/>
		<path style="fill:none;stroke:#1E1E1E;stroke-width:4;stroke-miterlimit:10;" d="M586.076,141.883"/>
		<path style="fill:none;stroke:#1E1E1E;stroke-width:4;stroke-miterlimit:10;" d="M411.546,92.955l60.882-12.159
			c0.725-0.145,1.205,0.73,0.695,1.264l-23.105,24.21l-38.719-7.226C410.549,98.814,410.776,93.109,411.546,92.955z"/>
		<path style="fill:none;stroke:#1E1E1E;stroke-width:4;stroke-miterlimit:10;" d="M524.339,201.838"/>
		<path style="fill:none;stroke:#1E1E1E;stroke-width:4;stroke-miterlimit:10;" d="M265.092,135.179
			c-22.498-4.05-55.13-7.941-92.939-5.416c-30.099,2.01-54.294,7.474-71.824,12.697"/>
		<path style="fill:none;stroke:#1E1E1E;stroke-width:4;stroke-miterlimit:10;" d="M317.31,321.026
			c-16.65,17.548-40.154,46.874-56.45,88.755c-25.591,65.773-18.536,124.301-13.608,150.783"/>
		<path style="fill:none;stroke:#1E1E1E;stroke-width:4;stroke-miterlimit:10;" d="M269.051,584.77
			c-0.639-2.088-5.862-18.221-21.547-23.828c-16.871-6.031-31.79,5.14-35.533,7.943c-15.38,11.515-17.909,29.086-19.657,41.226
			c-1.398,9.713-3.513,24.401,5.292,31.77c3.927,3.286,8.738,4.04,12.096,4.16"/>
		<path style="fill:none;stroke:#1E1E1E;stroke-width:4;stroke-miterlimit:10;" d="M202.899,603.303
			c-1.241,4.685-2.364,11.796-0.756,20.046c1.057,5.422,2.608,13.381,9.45,18.533c3.051,2.297,6.178,3.301,8.316,3.782"/>
		<path style="fill:none;stroke:#1E1E1E;stroke-width:4;stroke-miterlimit:10;" d="M235.408,592.713
			c-2.356,1.491-8.472,5.832-10.584,13.616c-2.092,7.708,0.953,14.335,3.402,19.667c2.995,6.519,6.919,10.414,8.316,11.725
			c1.948,1.827,4.805,4.507,9.072,6.052c5.538,2.004,10.945,1.838,14.553,1.702c7.655-0.288,11.879-0.576,15.309-0.514
			c5.395,0.097,8.565-0.15,16.128-2.196c9.475-2.564,11.737-0.072,25.705-6.051c10.067-4.31,31.328-8.102,37.171-9.582"/>
		<path style="fill:none;stroke:#1E1E1E;stroke-width:4;stroke-miterlimit:10;" d="M193.239,614.214"/>
		<path style="fill:none;stroke:#1E1E1E;stroke-width:4;stroke-miterlimit:10;" d="M186.663,533.683"/>
		<path style="fill:none;stroke:#1E1E1E;stroke-width:4;stroke-miterlimit:10;" d="M210.628,570.341"/>
		<path style="fill:none;stroke:#1E1E1E;stroke-width:4;stroke-miterlimit:10;" d="M377.54,484.921
			c4.52,8.945,11.179,25.037,12.096,46.143c1.111,25.558-6.781,45.07-11.34,54.463"/>
		<path style="fill:none;stroke:#1E1E1E;stroke-width:4;stroke-miterlimit:10;" d="M354.859,627.887
			c-0.642-3.618-3.006-19.181,6.804-31.014c5.885-7.098,13.426-9.568,21.169-12.103c11.802-3.865,21.215-3.573,34.777-3.026
			c19.712,0.796,29.568,1.194,37.045,7.564c9.586,8.167,11.485,20.299,12.096,24.206c0.762,4.867,2.231,14.251-3.024,22.693
			c-2.918,4.688-6.678,7.106-12.096,10.59c-1.584,1.019-5.134,3.2-18.901,8.321c-16.995,6.321-19.424,5.913-21.169,5.295
			c-5.883-2.083-8.587-8.172-11.34-14.372c-5.336-12.017-3.452-22.75-3.024-24.962c1.193-6.168,3.58-10.812,5.292-13.616"/>
		<path style="fill:none;stroke:#1E1E1E;stroke-width:4;stroke-miterlimit:10;" d="M378.296,605.95
			c-3.817,3.403-12.317,12.009-14.364,25.341c-0.634,4.13-2.832,18.438,5.67,24.962c5.513,4.231,12.905,3.178,16.633,2.648
			c8.28-1.179,13.883-5.493,16.255-7.564"/>
		<path style="fill:none;stroke:#1E1E1E;stroke-width:4;stroke-miterlimit:10;" d="M354.481,627.131
			c-0.195,0.702-2.958,11.273,3.78,18.154c2.454,2.507,5.294,3.631,7.182,4.16"/>
		<path style="fill:none;stroke:#1E1E1E;stroke-width:4;stroke-miterlimit:10;" d="M506.064,329.851
			c10.743,5.075,26.508,14.058,41.581,29.501c22.931,23.494,31.336,48.697,38.557,70.349c5.676,17.02,13.494,40.461,12.096,71.105
			c-1.3,28.516-10.176,54.4-7.56,55.22c2.469,0.774,7.603-23.16,20.413-24.962c7.695-1.083,14.523,6.333,21.925,14.372
			c7.154,7.77,19.79,21.495,18.901,40.848c-0.164,3.576-0.738,16.055-9.828,24.962c-1.606,1.574-4.377,3.917-19.657,9.077
			c-20.125,6.797-30.416,10.143-41.581,7.564c-6.797-1.57-11.924-4.579-15.12-6.808"/>
		<path style="fill:none;stroke:#1E1E1E;stroke-width:4;stroke-miterlimit:10;" d="M612.663,574.18
			c2.787,3.041,9.697,11.405,11.34,24.206c1.178,9.176-0.875,16.549-2.268,20.424"/>
		<path style="fill:none;stroke:#1E1E1E;stroke-width:4;stroke-miterlimit:10;" d="M503.276,472.924
			c-0.198,5.312-0.053,13.671,2.268,23.45c4.908,20.68,13.54,22.411,22.681,46.143c7.109,18.456,5.055,25.631,14.364,34.796
			c6.788,6.683,9.957,4.912,15.876,12.103c7.415,9.007,12.529,24.035,7.56,34.796c-2.006,4.346-7.534,12.062-7.56,12.103l0,0"/>
		<path style="fill:none;stroke:#1E1E1E;stroke-width:4;stroke-miterlimit:10;" d="M521.94,602.546
			c1.766,3.591,5.158,11.841,3.402,21.937c-0.617,3.546-1.664,9.568-6.804,14.75c-1.057,1.066-6.25,6.092-14.364,6.808
			c-7.9,0.697-13.769-3.117-18.145-6.052c-9.556-6.409-14.875-15.224-18.145-22.315c-7.386-16.021-7.31-29.752-7.938-42.36
			c-0.726-14.584-2.768-35.168-8.694-60.515"/>
		<path style="fill:none;stroke:#1E1E1E;stroke-width:4;stroke-miterlimit:10;" d="M549.157,608.598
			c6.063,10.844,5.727,23.206-0.756,31.014c-0.827,0.996-8.551,10.002-18.901,7.943c-6.081-1.21-9.741-5.578-10.962-7.186"/>
		<path style="fill:none;stroke:#1E1E1E;stroke-width:4;stroke-miterlimit:10;" d="M557.674,637.13
			c-3.402,0.63-5.493,0.339-8.895,0.969"/>
		
			<line style="fill:none;stroke:#1E1E1E;stroke-width:4;stroke-miterlimit:10;" x1="208.758" y1="646.042" x2="253.174" y2="646.042"/>
		<path style="fill:none;stroke:#1E1E1E;stroke-width:4;stroke-miterlimit:10;" d="M469.477,618.637
			c1.072-4.106,6.54-23.243,26-35.333c20.279-12.599,40.774-8.24,44.667-7.333"/>
		<path style="fill:none;stroke:#1E1E1E;stroke-width:4;stroke-miterlimit:10;" d="M291.004,108.017
			c2.504,2.149,19.675-11.801,48.473-22.713c17.211-6.521,31.754-2.252,43.505-8.333c2.221-2.355-3.459-2.993-5.505-5
			c-6.182-6.066-25.989-21.81-52-11.668C297.845,71.077,288.366,105.752,291.004,108.017z"/>
		<path style="fill:none;stroke:#1E1E1E;stroke-width:4;stroke-miterlimit:10;" d="M487.977,73.637
			c2.358,2.254,3.366-10.467,22.921-12.667c19.355-2.177,28.744,3.928,36.579-3.167c2.541-2.301-7.568-12.502-10.366-14.281
			c-9.011-5.73-14.16-17.42-35.801-9.219C483.826,40.93,485.61,71.375,487.977,73.637z"/>
		<path style="fill:none;stroke:#1E1E1E;stroke-width:4;stroke-miterlimit:10;" d="M279.31,118.304
			c-7.885-7.336-18.149-15.661-31-23.5c-10.47-6.387-20.374-11.058-29-14.5"/>
		<path style="fill:none;stroke:#1E1E1E;stroke-width:4;stroke-miterlimit:10;" d="M261.81,120.804
			c-12.46-6.225-29.863-13.308-51.5-17.5c-17.873-3.463-33.637-3.986-46-3.5"/>
		<path style="fill:none;stroke:#1E1E1E;stroke-width:4;stroke-miterlimit:10;" d="M273.31,159.804
			c-7.984,7.1,9.674,38.829,14.5,47.5c11.209,20.141,28.307,50.863,65.5,70.5c25.608,13.52,48.523,15.334,65.5,16.5
			c17.152,1.178,68.473,3.963,116.5-29c11.206-7.691,26.873-18.874,36-42c17.908-45.375,16.702-92.942,13-104.5
			c-2.971-2.898-7.357-6.213-12-5.5c-5.031,0.773-6.968,5.754-13,11.5c-4.898,4.665-9.293,6.784-17,10.5
			c-16.384,7.899-33.897,6.561-57.5,4.5c-7.402-0.646-18.114-1.885-31-4.5c-4.829,2.84-11.829,6.773-20.5,11
			c-6.511,3.174-23.891,11.354-56,21c-21.683,6.514-32.524,9.771-38,10C302.732,178.835,281.104,152.873,273.31,159.804z"/>
		<path style="fill:none;stroke:#1E1E1E;stroke-width:4;stroke-miterlimit:10;" d="M294.144,189.637l31.918,31.304
			c1.395,1.368,3.705,1.059,4.691-0.628l15.391-26.342"/>
		<path style="fill:none;stroke:#1E1E1E;stroke-width:4;stroke-miterlimit:10;" d="M397.144,201.838l22.71,30.454
			c1.546,2.074,4.817,1.349,5.342-1.184l5.615-27.046l20.279,19.92c1.651,1.621,4.438,0.843,5.009-1.399l3.045-11.946l9.533,9.533
			c1.585,1.585,4.286,0.935,4.976-1.198l4.824-14.911l11.74,29.01c1.031,2.547,4.658,2.484,5.599-0.098l16.327-44.78"/>
		<path style="fill:none;stroke:#1E1E1E;stroke-width:4;stroke-miterlimit:10;" d="M586.076,141.883l-7.846,31.408
			c-0.647,2.591-4.103,3.108-5.481,0.82l-6.271-10.418l-2.548,9.069c-0.744,2.649-4.364,2.982-5.58,0.514l-3.873-7.865"/>
		<path style="fill:none;stroke:#1E1E1E;stroke-width:4;stroke-miterlimit:10;" d="M545.144,149.971
			c5.215,12.061,5.439,23.171,6.417,30.333c1.745,12.779,0.5,33.945-7.75,52.667c-1.658,3.762-5.724,4.865-7.667,6
			c-2.019-2.449-3.555-7.276-6.519-12.542c-6.43-11.425-8.678-18.553-12.481-29.458c-2.187-6.273-6.007-15.306-13-25.667"/>
		<path style="fill:none;stroke:#1E1E1E;stroke-width:4;stroke-miterlimit:10;" d="M405.144,188.637
			c-5.08,7.766-8.695,21.736-12.667,38.667c-3.906,16.655-6.713,29.512-5.667,38.667c-6.379-0.895-11.854-2.131-15-5
			c-22.667-20.667-25.869-63.066-25.667-65.667"/>
		<path style="fill:none;stroke:#1E1E1E;stroke-width:3;stroke-miterlimit:10;" d="M596.144,249.971
			c24.24,11.883,42.496,21.465,54.667,28c13.944,7.487,27.302,14.949,41.333,10.667c2.7-0.824,8.793-2.775,11.333-8
			c4.976-10.235-7.328-25.529-11.333-30.667c-16.747-21.483-47.769-69.857-92-142"/>
		<path style="fill:none;stroke:#1E1E1E;stroke-width:4;stroke-miterlimit:10;" d="M606.144,234.637
			c18.225,20.391,36.007,27.289,46.667,30c8.382,2.132,24.517,4.767,26.667,0c1.697-3.764-6.002-10.643-12-16
			c-17.201-15.365-27.661-15.888-39.333-27.333c-4.638-4.548-10.821-12.148-15.333-24.667"/>
		<path style="fill:none;stroke:#1E1E1E;stroke-width:3;stroke-miterlimit:10;" d="M568.81,67.304c9.245-12.993,22.524-28.813,41-44
			c11.263-9.258,22.218-16.44,32-22"/>
		<path style="fill:none;stroke:#1E1E1E;stroke-width:3;stroke-miterlimit:10;" d="M569.81,85.304
			c10.902-10.158,25.785-22.122,45-33c15.797-8.943,30.594-14.928,43-19"/>
		<path style="fill:none;stroke:#1E1E1E;stroke-width:3;stroke-miterlimit:10;" d="M585.81,90.304c14.309-2.084,34.024-3.365,57,0
			c16.765,2.455,30.924,6.748,42,11"/>
		
			<ellipse style="fill:#0D0D0D;stroke:#1E1E1E;stroke-width:4;stroke-miterlimit:10;" cx="330.32" cy="73.998" rx="12.833" ry="11.306"/>
		<ellipse style="fill:#FFFFFF;" cx="327.81" cy="70.333" rx="4.612" ry="3.665"/>
		
			<ellipse style="fill:#0D0D0D;stroke:#1E1E1E;stroke-width:4;stroke-miterlimit:10;" cx="507.07" cy="45.674" rx="12.833" ry="11.306"/>
		<ellipse style="fill:#FFFFFF;" cx="504.56" cy="42.009" rx="4.612" ry="3.665"/>
		<path style="fill:none;stroke:#1E1E1E;stroke-width:4;stroke-miterlimit:10;" d="M213.81,567.304c-15.605,0.927-41.169,0.45-70-10
			c-23.918-8.669-39.844-14.442-50-30c-17.922-27.455,0.756-56.837-21-77c-2.303-2.135-9.835-8.924-20-9
			c-15.625-0.117-26.832,15.704-32,23c-16.474,23.256-23.92,58.215-15,92c12.985,49.179,54.516,72.642,64,78
			c57.957,32.743,118.226,11.607,128,8"/>
		<g>
			<g>
				<path style="fill:#1E1E1E;" d="M51.14,622.093c19.032,2.811,38.16,2.207,56.962-1.889c-0.642-1.523-1.284-3.046-1.926-4.569
					c-9.33,6.136-18.165,12.931-26.492,20.371c-1.525,1.362-0.395,4.503,1.768,4.268c9.551-1.041,18.978-2.832,28.183-5.608
					c6.469-1.951,17.7-4.035,21.179-10.567c1.402-2.631-1.766-4.754-3.926-3.03c-9.343,7.456-18.107,15.544-26.288,24.259
					c-1.353,1.442-0.513,4.492,1.768,4.268c15.744-1.546,30.706-6.414,44.277-14.561c-0.841-1.439-1.682-2.878-2.524-4.317
					c-7.125,5.433-13.197,11.768-18.269,19.156c-1.023,1.49,0.316,3.936,2.159,3.762c15.122-1.427,29.507-5.983,42.636-13.634
					c-1.01-1.309-2.02-2.618-3.03-3.926c-4.9,3.941-9.566,7.995-12.367,13.735c-0.963,1.972,0.618,4.17,2.823,3.673
					c11.36-2.566,19.03-11.42,25.97-20.164c-1.423-0.589-2.845-1.179-4.268-1.768c-0.542,4.192-1.819,8.975-1.708,13.213
					c0.049,1.883,0.244,3.18,1.977,4.236c4.253,2.593,10.683-2.028,13.57-4.902c2.283-2.273-1.251-5.809-3.536-3.536
					c-1.218,1.213-2.526,2.291-4.088,3.042c-2.813,1.352-2.708,1.656-2.679-0.728c0.044-3.706,0.988-7.644,1.464-11.325
					c0.269-2.081-2.973-3.399-4.268-1.768c-6.379,8.038-13.283,16.511-23.763,18.878c0.941,1.224,1.882,2.448,2.823,3.672
					c2.616-5.36,7.021-9.051,11.585-12.723c2.249-1.809-0.634-5.322-3.03-3.926c-12.34,7.191-25.887,11.609-40.113,12.952
					c0.72,1.254,1.439,2.508,2.159,3.762c4.564-6.647,10.061-12.472,16.475-17.362c2.479-1.89,0.321-6.025-2.524-4.317
					c-12.784,7.674-26.906,12.42-41.753,13.878c0.589,1.423,1.179,2.845,1.768,4.268c8.18-8.716,16.944-16.804,26.288-24.259
					c-1.309-1.01-2.618-2.02-3.926-3.03c-1.79,3.36-7.147,4.503-10.446,5.701c-3.694,1.341-7.441,2.531-11.23,3.573
					c-7.664,2.108-15.469,3.564-23.369,4.425c0.589,1.423,1.179,2.845,1.768,4.268c8.013-7.159,16.503-13.685,25.481-19.589
					c2.379-1.565,0.879-5.181-1.926-4.569c-17.869,3.893-36.206,4.561-54.303,1.889C49.321,616.807,47.963,621.624,51.14,622.093
					L51.14,622.093z"/>
			</g>
		</g>
		<g>
			<g>
				<path style="fill:#1E1E1E;" d="M95.735,537.015c7.028,15.089,16.921,28.521,29.226,39.73c1.691,1.541,4.063,0.381,4.268-1.768
					c0.868-9.132-1.161-18.026-6.128-25.757c-1.743-2.713-5.794-0.341-4.317,2.524c5.652,10.961,13.917,20.029,24.228,26.779
					c1.502,0.984,3.935-0.288,3.762-2.159c-0.768-8.296-3.215-15.999-7.504-23.151c-1.309,1.01-2.618,2.02-3.926,3.03
					c10.628,12.575,23.428,23.936,39.871,27.719c1.644,0.378,3.865-1.195,3.075-3.075c-2.762-6.581-5.987-12.864-9.816-18.89
					c-1.14,1.14-2.28,2.28-3.42,3.42c10.526,6.565,21.162,12.947,31.909,19.146c1.994,1.15,4.082-0.74,3.673-2.823
					c-0.929-4.731-2.198-9.322-3.832-13.859c-1.082-3.005-5.915-1.709-4.821,1.329c1.634,4.536,2.903,9.128,3.832,13.859
					c1.224-0.941,2.448-1.882,3.673-2.823c-10.746-6.198-21.383-12.58-31.909-19.145c-2.099-1.309-4.76,1.313-3.42,3.42
					c3.589,5.647,6.721,11.523,9.312,17.695c1.025-1.025,2.05-2.05,3.075-3.075c-15.641-3.599-27.572-14.491-37.665-26.433
					c-1.852-2.191-5.365,0.632-3.926,3.03c3.82,6.37,6.136,13.223,6.822,20.627c1.254-0.72,2.508-1.439,3.762-2.159
					c-9.616-6.296-17.17-14.777-22.434-24.986c-1.439,0.841-2.878,1.682-4.317,2.524c4.547,7.078,6.239,14.886,5.445,23.234
					c1.423-0.589,2.845-1.178,4.268-1.768c-12.017-10.948-21.581-23.983-28.444-38.719
					C98.695,531.577,94.383,534.113,95.735,537.015L95.735,537.015z"/>
			</g>
		</g>
		<g>
			<g>
				<path style="fill:#1E1E1E;" d="M27.81,452.266c-4.493,10.102-10.404,20.422-13.277,31.131
					c-2.778,10.355-2.88,21.874-4.061,32.508c-0.355,3.193,4.648,3.168,5,0c1.131-10.179,1.227-21.28,3.883-31.179
					c2.755-10.27,8.458-20.235,12.773-29.936C33.424,451.875,29.116,449.328,27.81,452.266L27.81,452.266z"/>
			</g>
		</g>
	</g>
</g>
<g id="Layer_1">
</g>
</svg>
