<?xml version="1.0" encoding="iso-8859-1"?>
<!-- Generator: Adobe Illustrator 18.1.1, SVG Export Plug-In . SVG Version: 6.00 Build 0)  -->
<svg version="1.1" xmlns="http://www.w3.org/2000/svg" xmlns:xlink="http://www.w3.org/1999/xlink" x="0px" y="0px"
	 viewBox="0 0 620.698 741.233" style="enable-background:new 0 0 620.698 741.233;" xml:space="preserve">
<g id="Layer_3">
	<g>
		<path style="fill:none;stroke:#1F1F1F;stroke-width:5;stroke-miterlimit:10;" d="M173.304,250.249
			c25.049-91.895,82.535-162.452,186.92-162.452s191.091,67.201,191.091,162.452S466.695,422.717,362.31,422.717
			c-71.612,0-144.842-28.121-176.909-81.695C170.725,316.503,164.232,283.532,173.304,250.249z"/>
		<path style="fill:none;stroke:#1F1F1F;stroke-width:5;stroke-miterlimit:10;" d="M536.815,186.073
			c0,0,38.119-66.114,43.884-92.913c5.059-23.518,19.562-68.093,4.468-86.817c-1.409-1.748-3.169-2.708-5.27-3.5
			c-2.792-1.053-5.724,0.661-5.724,0.661c-6.436,2.753-17.905,11.151-18.311,12.294c-5.287,14.881-117.927,85.332-117.927,85.332"/>
		<path style="fill:none;stroke:#1F1F1F;stroke-width:5;stroke-miterlimit:10;" d="M485.528,124.13c0,0,72.833-84.333,82.667-93.333
			c0.653-0.598,5.217,7.914,1.217,39.414c-2.789,21.964-33.46,81.919-41.449,97.548"/>
		<path style="fill:none;stroke:#1F1F1F;stroke-width:4;stroke-miterlimit:10;" d="M169.134,276.258
			c-5.021-2.582-16.06-2.675-22.939-9.461c-15.142-14.939-27.832-33.971-32.25-51.5c-12.47-49.472-11.554-73.462-11.75-77.167
			c-2.467-46.571-7.155-76.916,15.25-61.333c72.25,50.25,110.75,69,110.75,69"/>
		<path style="fill:none;stroke:#1F1F1F;stroke-miterlimit:10;" d="M226.962,141.824"/>
		<path style="fill:none;stroke:#1F1F1F;stroke-width:4;stroke-miterlimit:10;" d="M195.173,192.288
			c0.098-2.498-9.988-4.285-12.645-7.824c-18.018-24-21.43-32.205-35.208-47.667c-9.375-10.521-3.864-6.577-17.625-25
			c-0.735-0.984-12.454-10.171-12.826-9c-3.37,10.61-3.285,19.959,0.326,54.833c5.072,48.977,34.667,87.167,54.597,88.837"/>
		<ellipse style="stroke:#1F1F1F;stroke-width:4;stroke-miterlimit:10;" cx="300.776" cy="218.598" rx="17.687" ry="23.199"/>
		<path style="fill:none;stroke:#1F1F1F;stroke-width:4;stroke-miterlimit:10;" d="M233.849,234.526
			c0-28.826,13.527-52.194,42.337-52.194s49.141,23.368,49.141,52.194s-20.331,52.194-49.141,52.194
			S233.849,263.352,233.849,234.526z"/>
		<path style="fill:none;stroke:#1F1F1F;stroke-width:3;stroke-miterlimit:10;" d="M439.982,213.34
			c-8.017-25.507,0.306-50.845,18.588-56.594c18.283-5.75,39.602,10.267,47.619,35.773s-0.306,50.845-18.588,56.594
			C469.318,254.863,447.999,238.846,439.982,213.34z"/>
		
			<ellipse transform="matrix(-0.9899 0.1416 -0.1416 -0.9899 979.8517 314.9177)" style="fill:#020202;stroke:#1F1F1F;stroke-width:4;stroke-miterlimit:10;" cx="478.72" cy="192.326" rx="12.812" ry="17.442"/>
		
			<ellipse style="fill:#FFFFFF;stroke:#1F1F1F;stroke-width:4;stroke-miterlimit:10;" cx="297.547" cy="211.226" rx="8.316" ry="9.455"/>
		
			<ellipse transform="matrix(-0.9899 0.1416 -0.1416 -0.9899 974.5613 311.7994)" style="fill:#FFFFFF;stroke:#1F1F1F;stroke-width:4;stroke-miterlimit:10;" cx="476.186" cy="190.579" rx="5.607" ry="6.781"/>
		<path style="fill:none;stroke:#1F1F1F;stroke-width:4;stroke-miterlimit:10;" d="M363.729,249.678l60.882-12.159
			c0.725-0.145,1.205,0.73,0.695,1.264l-23.105,24.21l-38.719-7.226C362.732,255.537,362.959,249.832,363.729,249.678z"/>
		<path style="fill:none;stroke:#1F1F1F;stroke-width:4;stroke-miterlimit:10;" d="M279.588,330.431
			c5.572-1.949,16.36-4.2,29.501-6.588c34.732-6.311,85.897-13.576,100.625-18.727c17.739-6.204,77.543-22.653,95.282-28.857"/>
		<path style="fill:none;stroke:#1F1F1F;stroke-width:4;stroke-miterlimit:10;" d="M470.552,291.299"/>
		<path style="fill:none;stroke:#1F1F1F;stroke-width:4;stroke-miterlimit:10;" d="M460.723,280.331"/>
		
			<line style="fill:none;stroke:#1F1F1F;stroke-width:4;stroke-miterlimit:10;" x1="219.929" y1="327.567" x2="168.885" y2="414.557"/>
		
			<line style="fill:none;stroke:#1F1F1F;stroke-width:4;stroke-miterlimit:10;" x1="214.369" y1="313.187" x2="123.401" y2="370.676"/>
		<path style="fill:none;stroke:#1F1F1F;stroke-width:4;stroke-miterlimit:10;" d="M205.051,303.345
			c-11.782,1.072-28.622,3.973-47.251,12.103c-14.831,6.473-26.269,14.284-34.399,20.802"/>
		<path style="fill:none;stroke:#1F1F1F;stroke-width:4;stroke-miterlimit:10;" d="M538.463,291.601
			c10.118,3.868,22.072,9.339,34.777,17.146c11.83,7.269,21.532,14.856,29.233,21.685"/>
		<path style="fill:none;stroke:#1F1F1F;stroke-width:4;stroke-miterlimit:10;" d="M545.922,270.711
			c8.944-1.461,20.655-2.52,34.273-1.513c14.392,1.064,26.381,4.1,35.281,7.06"/>
		
			<line style="fill:none;stroke:#1F1F1F;stroke-width:4;stroke-miterlimit:10;" x1="533.72" y1="250.249" x2="619.907" y2="213.129"/>
		<path style="fill:none;stroke:#1F1F1F;stroke-width:4;stroke-miterlimit:10;" d="M253.695,399.519
			c-16.65,17.548-40.154,46.874-56.45,88.755c-25.591,65.773-18.536,124.301-13.608,150.783"/>
		<path style="fill:none;stroke:#1F1F1F;stroke-width:4;stroke-miterlimit:10;" d="M205.435,663.263
			c-0.639-2.088-5.862-18.221-21.547-23.828c-16.871-6.031-31.79,5.14-35.533,7.943c-15.38,11.515-17.909,29.086-19.657,41.226
			c-1.398,9.713-3.513,24.401,5.292,31.77c3.927,3.286,8.738,4.04,12.096,4.16"/>
		<path style="fill:none;stroke:#1F1F1F;stroke-width:4;stroke-miterlimit:10;" d="M139.283,681.796
			c-1.241,4.685-2.364,11.796-0.756,20.046c1.057,5.422,2.608,13.381,9.45,18.533c3.051,2.297,6.178,3.301,8.316,3.782"/>
		<path style="fill:none;stroke:#1F1F1F;stroke-width:4;stroke-miterlimit:10;" d="M171.792,671.206
			c-2.356,1.491-8.472,5.832-10.584,13.616c-2.092,7.708,0.953,14.335,3.402,19.667c2.995,6.519,6.919,10.414,8.316,11.725
			c1.948,1.827,4.805,4.507,9.072,6.052c5.538,2.004,10.945,1.838,14.553,1.702c7.655-0.288,11.879-0.576,15.309-0.514
			c5.395,0.097,8.565-0.15,16.128-2.196c9.475-2.564,11.737-0.072,25.705-6.051c10.067-4.31,31.328-8.102,37.171-9.582"/>
		<path style="fill:none;stroke:#1F1F1F;stroke-width:4;stroke-miterlimit:10;" d="M147.012,648.834
			c-14.081,1.104-36.156,13.395-57.317,3.213c-11.235-5.406-10.5-16.25-9-30.25c0.196-1.833-4.442,1.081,3.833-8.08
			c14-15.5,33.608,5.8,38.52-1.54c2.863-4.278,11.867-17.377,0.647-30.379c-12.968-15.029-54.955-21.603-70.5-17.5
			c-16.895,4.46-21.834,8.574-29,15.5c-16.074,15.535-22.271,31.504-21.5,42.5c0.556,7.933-5.001,24.692,8.233,39.396
			c2.335,2.594,5.219,11.242,16.767,20.102c11.67,8.955,20.498,9.264,25.57,11.668c11.405,5.407,21.449,5.725,31.753,6.051
			c9.949,0.315,25.785-0.412,44.605-6.808"/>
		<path style="fill:none;stroke:#1F1F1F;stroke-width:4;stroke-miterlimit:10;" d="M313.924,563.414
			c4.52,8.945,11.179,25.037,12.096,46.143c1.111,25.558-6.781,45.07-11.34,54.463"/>
		<path style="fill:none;stroke:#1F1F1F;stroke-width:4;stroke-miterlimit:10;" d="M291.244,706.38
			c-0.642-3.618-3.006-19.181,6.804-31.014c5.885-7.098,13.426-9.568,21.169-12.103c11.802-3.865,21.215-3.573,34.777-3.026
			c19.712,0.796,29.568,1.194,37.045,7.564c9.586,8.167,11.485,20.299,12.096,24.206c0.762,4.867,2.231,14.251-3.024,22.693
			c-2.918,4.688-6.678,7.106-12.096,10.59c-1.584,1.019-5.134,3.2-18.901,8.321c-16.995,6.321-19.424,5.913-21.169,5.295
			c-5.883-2.083-8.587-8.172-11.34-14.372c-5.336-12.017-3.452-22.75-3.024-24.962c1.193-6.168,3.58-10.812,5.292-13.616"/>
		<path style="fill:none;stroke:#1F1F1F;stroke-width:4;stroke-miterlimit:10;" d="M314.68,684.443
			c-3.817,3.403-12.317,12.009-14.364,25.341c-0.634,4.13-2.832,18.438,5.67,24.962c5.513,4.231,12.905,3.178,16.633,2.648
			c8.28-1.179,13.883-5.493,16.254-7.564"/>
		<path style="fill:none;stroke:#1F1F1F;stroke-width:4;stroke-miterlimit:10;" d="M290.866,705.624
			c-0.195,0.702-2.958,11.273,3.78,18.154c2.454,2.507,5.294,3.631,7.182,4.16"/>
		<path style="fill:none;stroke:#1F1F1F;stroke-width:4;stroke-miterlimit:10;" d="M442.448,408.344
			c10.743,5.075,26.508,14.058,41.581,29.501c22.931,23.494,31.336,48.697,38.557,70.349c5.676,17.02,13.494,40.461,12.096,71.105
			c-1.3,28.516-10.176,54.4-7.56,55.22c2.469,0.774,7.603-23.16,20.413-24.962c7.695-1.083,14.523,6.333,21.925,14.372
			c7.154,7.77,19.79,21.495,18.901,40.848c-0.164,3.576-0.738,16.055-9.828,24.962c-1.606,1.574-4.377,3.917-19.657,9.077
			c-20.125,6.797-30.416,10.143-41.581,7.564c-6.797-1.57-11.924-4.579-15.12-6.808"/>
		<path style="fill:none;stroke:#1F1F1F;stroke-width:4;stroke-miterlimit:10;" d="M549.048,652.673
			c2.787,3.041,9.697,11.405,11.34,24.206c1.178,9.176-0.875,16.549-2.268,20.424"/>
		<path style="fill:none;stroke:#1F1F1F;stroke-width:4;stroke-miterlimit:10;" d="M439.661,551.417
			c-0.198,5.312-0.053,13.671,2.268,23.45c4.908,20.68,13.54,22.411,22.681,46.143c7.109,18.456,5.056,25.631,14.364,34.796
			c6.788,6.683,9.957,4.912,15.876,12.103c7.415,9.007,12.529,24.035,7.56,34.796c-2.006,4.346-7.534,12.062-7.56,12.103l0,0"/>
		<path style="fill:none;stroke:#1F1F1F;stroke-width:4;stroke-miterlimit:10;" d="M458.325,681.039
			c1.766,3.591,5.158,11.841,3.402,21.937c-0.617,3.546-1.664,9.568-6.804,14.75c-1.057,1.066-6.25,6.092-14.364,6.808
			c-7.9,0.697-13.769-3.117-18.145-6.052c-9.556-6.409-14.875-15.224-18.145-22.315c-7.386-16.021-7.31-29.752-7.938-42.36
			c-0.726-14.584-2.768-35.168-8.694-60.515"/>
		<path style="fill:none;stroke:#1F1F1F;stroke-width:4;stroke-miterlimit:10;" d="M485.542,687.091
			c6.063,10.844,5.727,23.206-0.756,31.014c-0.827,0.996-8.551,10.002-18.901,7.943c-6.081-1.21-9.741-5.578-10.962-7.186"/>
		<path style="fill:none;stroke:#1F1F1F;stroke-width:4;stroke-miterlimit:10;" d="M494.059,715.623
			c-3.402,0.63-5.493,0.339-8.895,0.969"/>
		
			<line style="fill:none;stroke:#1F1F1F;stroke-width:3;stroke-miterlimit:10;" x1="145.142" y1="724.535" x2="189.559" y2="724.535"/>
		<path style="fill:none;stroke:#1F1F1F;stroke-width:5;stroke-miterlimit:10;" d="M405.861,697.13
			c1.072-4.106,6.54-23.243,26-35.333c20.279-12.599,40.774-8.24,44.667-7.333"/>
		<path style="fill:none;stroke:#1F1F1F;stroke-width:4;stroke-miterlimit:10;" d="M333.499,319.628l15.107,19.921
			c0.368,0.767,1.464,0.754,1.814-0.022l12.603-24.822"/>
		<path style="fill:none;stroke:#1F1F1F;stroke-width:4;stroke-miterlimit:10;" d="M448.168,293.373l10.59,24.372
			c0.397,0.884,1.427,0.84,1.775-0.076l10.379-30.949"/>
	</g>
</g>
<g id="Layer_1">
</g>
</svg>
